<?xml version="1.0" encoding="utf-8"?>
<!-- Generator: Adobe Illustrator 21.0.0, SVG Export Plug-In . SVG Version: 6.00 Build 0)  -->
<svg version="1.1" id="Layer_1" xmlns="http://www.w3.org/2000/svg" xmlns:xlink="http://www.w3.org/1999/xlink" x="0px" y="0px"
	 viewBox="0 0 1299.1 4958.4" style="enable-background:new 0 0 1299.1 4958.4;" xml:space="preserve">
<g>
	<path d="M147,1737.4h160.6c22.4,0,40.7-18.2,40.7-40.7v-25c0-22.4-18.2-40.7-40.7-40.7H147c-22.4,0-40.7,18.2-40.7,40.7v25
		C106.3,1719.2,124.6,1737.4,147,1737.4z M112,1671.8c0-19.3,15.7-35,35-35h160.6c19.3,0,35,15.7,35,35v25c0,19.3-15.7,35-35,35H147
		c-19.3,0-35-15.7-35-35V1671.8z"/>
	<path d="M1299.1,4366.3V243.6l-0.2-1c-6.9-39-17.6-66.1-32.5-83C1180.3,62.7,939.9,0,653.9,0c-286,0-526.4,62.7-612.5,159.7
		C14.4,190,0.9,255,0,358.4v3939.3v98.9c0,57.7,3,143.6,17.3,225.3c17.6,100.4,47.8,168.5,89.9,202.5
		c65.9,53.2,156.8,91,270.3,112.3c50,9.4,133,21.8,276.4,21.8c68.7,0,172-2.3,276.4-21.8c113.5-21.3,204.4-59,270.3-112.3
		c50.1-40.5,83.2-128.7,98.4-262.2l0.1-0.6L1299.1,4366.3L1299.1,4366.3z M58.4,174.7C98,130.1,175,92,281.1,64.8
		c107-27.5,235.9-42.1,372.8-42.1c136.9,0,265.8,14.5,372.8,42.1c106.1,27.3,183.1,65.3,222.7,110c11.8,13.3,20.9,37.2,27,70.9
		v4298.3c-0.2,1.4-0.4,2.7-0.5,4c-0.2,1.1-0.3,2.2-0.5,3.4c-0.2,1.5-0.4,2.9-0.6,4.3c-0.2,1.1-0.3,2.2-0.5,3.2
		c-0.2,1.4-0.5,2.8-0.7,4.2c-0.2,1-0.3,2.1-0.5,3.1c-0.2,1.4-0.5,2.8-0.7,4.2c-0.2,1-0.4,2-0.5,3c-0.3,1.4-0.5,2.7-0.8,4.1
		c-0.2,1-0.4,1.9-0.6,2.9c-0.3,1.4-0.6,2.7-0.9,4.1c-0.2,0.9-0.4,1.9-0.6,2.8c-0.3,1.3-0.6,2.7-0.9,4c-0.2,0.9-0.4,1.8-0.6,2.7
		c-0.3,1.3-0.7,2.6-1,4c-0.2,0.8-0.4,1.7-0.6,2.5c-0.3,1.3-0.7,2.6-1.1,3.9c-0.2,0.8-0.4,1.6-0.7,2.4c-0.4,1.3-0.8,2.6-1.1,3.9
		c-0.2,0.8-0.4,1.5-0.7,2.3c-0.4,1.3-0.8,2.5-1.2,3.8c-0.2,0.7-0.5,1.5-0.7,2.2c-0.4,1.3-0.9,2.5-1.3,3.8c-0.2,0.7-0.5,1.4-0.7,2.1
		c-0.4,1.2-0.9,2.5-1.4,3.7c-0.3,0.7-0.5,1.3-0.7,2c-0.5,1.2-1,2.4-1.4,3.6c-0.3,0.6-0.5,1.3-0.8,1.9c-0.5,1.2-1,2.4-1.5,3.6
		c-0.3,0.6-0.5,1.2-0.8,1.8c-0.5,1.2-1.1,2.4-1.6,3.5c-0.3,0.6-0.5,1.2-0.8,1.8c-0.6,1.2-1.1,2.3-1.7,3.4c-0.3,0.6-0.6,1.1-0.8,1.7
		c-0.6,1.1-1.2,2.3-1.8,3.4c-0.3,0.5-0.6,1.1-0.9,1.6c-0.6,1.1-1.3,2.2-1.9,3.4c-0.3,0.5-0.6,1-0.9,1.5c-0.6,1.1-1.3,2.2-2,3.3
		c-0.3,0.5-0.6,1-0.9,1.5c-0.7,1.1-1.4,2.1-2,3.2c-0.3,0.5-0.6,1-0.9,1.5c-0.7,1.1-1.4,2.1-2.1,3.1c-0.3,0.5-0.6,0.9-1,1.4
		c-0.7,1-1.5,2.1-2.2,3.1c-0.3,0.5-0.7,0.9-1,1.4c-0.8,1-1.5,2-2.3,3c-0.3,0.4-0.7,0.9-1,1.3c-0.8,1-1.6,2-2.4,2.9
		c-0.4,0.4-0.7,0.9-1.1,1.3c-0.8,1-1.6,1.9-2.5,2.8c-0.4,0.4-0.7,0.9-1.1,1.3c-0.9,0.9-1.7,1.9-2.6,2.8c-0.4,0.4-0.7,0.8-1.1,1.2
		c-0.9,0.9-1.8,1.8-2.7,2.7c-0.4,0.4-0.8,0.8-1.2,1.2c-0.9,0.9-1.8,1.8-2.8,2.7c-0.4,0.4-0.8,0.8-1.2,1.2c-0.9,0.9-1.9,1.8-2.9,2.7
		c-0.4,0.4-0.8,0.8-1.2,1.1c-1.1,0.9-2.1,1.9-3.2,2.8c-0.4,0.3-0.7,0.6-1.1,0.9c-1.4,1.2-2.9,2.4-4.4,3.6
		c-31.2,25.2-69.1,46.6-112.8,63.8c-2.9,1.1-5.9,2.3-8.8,3.4c-41.6,15.5-89.4,27.8-142.2,36.4c-85.3,14-170.8,17-251.5,17.5
		c-8.4,0-16.7,0.1-24.9,0.1c-2.7,0-5.5,0-8.3,0c-38.6-0.1-78.5-0.6-118.9-2.5c-2.9-0.1-5.8-0.3-8.7-0.4
		c-46.3-2.5-93.5-6.8-140.5-14.6c-19.8-3.2-38.9-7-57.3-11.2c-30.6-7.1-59-15.5-85-25.2c-9.4-3.5-18.5-7.2-27.3-11.1
		c-36-15.8-67.7-34.6-94.4-56.1c-17.7-14.3-32.1-30.2-43.8-48.7c-16.2-25.7-27-56.4-34.1-95.1c-6.1-33.1-9.3-70.9-11.1-115.9
		c-1.7-44.9-2-96.9-2-158.3v-3908l0-31.2C23.7,238.7,42.6,192.4,58.4,174.7z M1186.4,4806.7c-62.9,50.8-150.5,87-260.2,107.6
		c-49.1,9.2-130.7,21.4-272.2,21.4c-67.8,0-169.7-2.2-272.2-21.4c-109.8-20.6-197.3-56.8-260.2-107.6c-30.7-24.8-52-69.4-66.7-121.3
		c0.8,1.2,1.6,2.4,2.5,3.6c0.2,0.3,0.4,0.5,0.6,0.8c0.8,1.1,1.6,2.1,2.3,3.2c0.3,0.4,0.6,0.8,0.9,1.2c0.8,1,1.6,2,2.3,3
		c0.2,0.3,0.5,0.6,0.7,0.9c1,1.3,2,2.5,3.1,3.8c0.3,0.3,0.5,0.6,0.8,0.9c0.8,1,1.6,1.9,2.5,2.9c0.3,0.4,0.7,0.8,1,1.1
		c0.9,1,1.8,2,2.7,3c0.2,0.2,0.4,0.5,0.6,0.7c1.1,1.2,2.2,2.4,3.4,3.6c0.3,0.3,0.6,0.6,0.9,0.9c0.9,0.9,1.8,1.8,2.7,2.7
		c0.4,0.4,0.7,0.7,1.1,1.1c1.1,1,2.1,2.1,3.2,3.1c0.1,0.1,0.3,0.3,0.4,0.4c1.2,1.1,2.5,2.3,3.7,3.4c0.4,0.3,0.7,0.6,1.1,0.9
		c1,0.8,1.9,1.7,2.9,2.5c0.4,0.3,0.8,0.6,1.1,1c1.3,1.1,2.6,2.2,4,3.3c35.1,28.4,78.2,52.2,128,70.8c6.5,2.4,13.2,4.8,20,7.1
		c38,12.7,80.5,23,126.5,30.5c95.7,15.7,191.2,17.8,280.1,17.8c5.5,0,11.1,0,16.7,0c0.1,0,0.1,0,0.2,0c84-0.3,173.5-3.1,263.2-17.8
		c46.9-7.7,90.1-18.2,128.7-31.2c3.3-1.1,6.5-2.2,9.7-3.4c2.7-1,5.4-2,8.1-3c12.4-4.6,24.5-9.6,36.1-14.9
		c34.8-15.9,65.6-34.6,91.9-55.9c0,0,0.1-0.1,0.1-0.1c1.5-1.2,2.9-2.4,4.3-3.6c0.4-0.3,0.7-0.6,1.1-0.9c1.4-1.2,2.8-2.5,4.2-3.7
		c0.2-0.1,0.3-0.3,0.5-0.5c1.3-1.1,2.5-2.3,3.8-3.5c0.3-0.3,0.6-0.6,0.9-0.9c1.3-1.3,2.7-2.6,4-3.9c0.2-0.2,0.4-0.5,0.7-0.7
		c1.1-1.2,2.3-2.3,3.4-3.5c0.3-0.3,0.5-0.6,0.8-0.8c1.2-1.3,2.5-2.7,3.7-4c0.3-0.3,0.5-0.6,0.8-0.9c1.1-1.2,2.1-2.4,3.2-3.7
		c0.2-0.2,0.4-0.5,0.6-0.7c1.2-1.4,2.3-2.8,3.4-4.2c0.3-0.3,0.5-0.7,0.8-1c1-1.3,2-2.6,3-3.9c0.1-0.2,0.3-0.3,0.4-0.5
		c1.1-1.4,2.1-2.9,3.2-4.4c0.3-0.4,0.5-0.7,0.8-1.1c0.3-0.4,0.6-0.8,0.8-1.2C1236.4,4743.4,1213.9,4784.4,1186.4,4806.7z"/>
	<path d="M153.6,695.9H391c25,0,45.4-20.3,45.4-45.4v-29c0-25-20.3-45.4-45.4-45.4H153.6c-25,0-45.4,20.3-45.4,45.4v29
		C108.2,675.5,128.6,695.9,153.6,695.9z M113.9,621.6c0-21.9,17.8-39.7,39.7-39.7H391c21.9,0,39.7,17.8,39.7,39.7v29
		c0,21.9-17.8,39.7-39.7,39.7H153.6c-21.9,0-39.7-17.8-39.7-39.7V621.6z"/>
	<path d="M530.8,695.9h237.5c25,0,45.4-20.3,45.4-45.4v-29c0-25-20.3-45.4-45.4-45.4H530.8c-25,0-45.4,20.3-45.4,45.4v29
		C485.5,675.5,505.8,695.9,530.8,695.9z M491.1,621.6c0-21.9,17.8-39.7,39.7-39.7h237.5c21.9,0,39.7,17.8,39.7,39.7v29
		c0,21.9-17.8,39.7-39.7,39.7H530.8c-21.9,0-39.7-17.8-39.7-39.7V621.6z"/>
	<path d="M908.1,695.9h237.5c25,0,45.4-20.3,45.4-45.4v-29c0-25-20.3-45.4-45.4-45.4H908.1c-25,0-45.4,20.3-45.4,45.4v29
		C862.7,675.5,883.1,695.9,908.1,695.9z M868.4,621.6c0-21.9,17.8-39.7,39.7-39.7h237.5c21.9,0,39.7,17.8,39.7,39.7v29
		c0,21.9-17.8,39.7-39.7,39.7H908.1c-21.9,0-39.7-17.8-39.7-39.7V621.6z"/>
	<path d="M153.6,887.9H391c25,0,45.4-20.3,45.4-45.4v-29c0-25-20.3-45.4-45.4-45.4H153.6c-25,0-45.4,20.3-45.4,45.4v29
		C108.2,867.5,128.6,887.9,153.6,887.9z M113.9,813.6c0-21.9,17.8-39.7,39.7-39.7H391c21.9,0,39.7,17.8,39.7,39.7v29
		c0,21.9-17.8,39.7-39.7,39.7H153.6c-21.9,0-39.7-17.8-39.7-39.7V813.6z"/>
	<path d="M530.8,887.9h237.5c25,0,45.4-20.3,45.4-45.4v-29c0-25-20.3-45.4-45.4-45.4H530.8c-25,0-45.4,20.3-45.4,45.4v29
		C485.5,867.5,505.8,887.9,530.8,887.9z M491.1,813.6c0-21.9,17.8-39.7,39.7-39.7h237.5c21.9,0,39.7,17.8,39.7,39.7v29
		c0,21.9-17.8,39.7-39.7,39.7H530.8c-21.9,0-39.7-17.8-39.7-39.7V813.6z"/>
	<path d="M908.1,887.9h237.5c25,0,45.4-20.3,45.4-45.4v-29c0-25-20.3-45.4-45.4-45.4H908.1c-25,0-45.4,20.3-45.4,45.4v29
		C862.7,867.5,883.1,887.9,908.1,887.9z M868.4,813.6c0-21.9,17.8-39.7,39.7-39.7h237.5c21.9,0,39.7,17.8,39.7,39.7v29
		c0,21.9-17.8,39.7-39.7,39.7H908.1c-21.9,0-39.7-17.8-39.7-39.7V813.6z"/>
	<path d="M153.6,1079.9H391c25,0,45.4-20.3,45.4-45.4v-29c0-25-20.3-45.4-45.4-45.4H153.6c-25,0-45.4,20.3-45.4,45.4v29
		C108.2,1059.5,128.6,1079.9,153.6,1079.9z M113.9,1005.6c0-21.9,17.8-39.7,39.7-39.7H391c21.9,0,39.7,17.8,39.7,39.7v29
		c0,21.9-17.8,39.7-39.7,39.7H153.6c-21.9,0-39.7-17.8-39.7-39.7V1005.6z"/>
	<path d="M530.8,1079.9h237.5c25,0,45.4-20.3,45.4-45.4v-29c0-25-20.3-45.4-45.4-45.4H530.8c-25,0-45.4,20.3-45.4,45.4v29
		C485.5,1059.5,505.8,1079.9,530.8,1079.9z M491.1,1005.6c0-21.9,17.8-39.7,39.7-39.7h237.5c21.9,0,39.7,17.8,39.7,39.7v29
		c0,21.9-17.8,39.7-39.7,39.7H530.8c-21.9,0-39.7-17.8-39.7-39.7V1005.6z"/>
	<path d="M908.1,1079.9h237.5c25,0,45.4-20.3,45.4-45.4v-29c0-25-20.3-45.4-45.4-45.4H908.1c-25,0-45.4,20.3-45.4,45.4v29
		C862.7,1059.5,883.1,1079.9,908.1,1079.9z M868.4,1005.6c0-21.9,17.8-39.7,39.7-39.7h237.5c21.9,0,39.7,17.8,39.7,39.7v29
		c0,21.9-17.8,39.7-39.7,39.7H908.1c-21.9,0-39.7-17.8-39.7-39.7V1005.6z"/>
	<path d="M314.1,3569.9c25,0,45.4-20.3,45.4-45.4v-455c0-25-20.3-45.4-45.4-45.4h-98c-25,0-45.4,20.3-45.4,45.4v455
		c0,25,20.3,45.4,45.4,45.4H314.1z M176.5,3524.5v-455c0-21.9,17.8-39.7,39.7-39.7h98c21.9,0,39.7,17.8,39.7,39.7v455
		c0,21.9-17.8,39.7-39.7,39.7h-98C194.3,3564.2,176.5,3546.4,176.5,3524.5z"/>
	<path d="M1076.9,3569.9c25,0,45.4-20.3,45.4-45.4v-455c0-25-20.3-45.4-45.4-45.4h-98c-25,0-45.4,20.3-45.4,45.4v455
		c0,25,20.3,45.4,45.4,45.4H1076.9z M939.3,3524.5v-455c0-21.9,17.8-39.7,39.7-39.7h98c21.9,0,39.7,17.8,39.7,39.7v455
		c0,21.9-17.8,39.7-39.7,39.7h-98C957.1,3564.2,939.3,3546.4,939.3,3524.5z"/>
	<path d="M989.6,1737.4h160.6c22.4,0,40.7-18.2,40.7-40.7v-25c0-22.4-18.2-40.7-40.7-40.7H989.6c-22.4,0-40.7,18.2-40.7,40.7v25
		C949,1719.2,967.2,1737.4,989.6,1737.4z M954.6,1671.8c0-19.3,15.7-35,35-35h160.6c19.3,0,35,15.7,35,35v25c0,19.3-15.7,35-35,35
		H989.6c-19.3,0-35-15.7-35-35V1671.8z"/>
	<path d="M869.3,1631.1H708.8c-22.4,0-40.7,18.2-40.7,40.7v25c0,22.4,18.2,40.7,40.7,40.7h160.6c22.4,0,40.7-18.2,40.7-40.7v-25
		C910,1649.3,891.8,1631.1,869.3,1631.1z M904.3,1696.8c0,19.3-15.7,35-35,35H708.8c-19.3,0-35-15.7-35-35v-25c0-19.3,15.7-35,35-35
		h160.6c19.3,0,35,15.7,35,35V1696.8z"/>
	<path d="M427.9,1631.1c-22.4,0-40.7,18.2-40.7,40.7v25c0,22.4,18.2,40.7,40.7,40.7h160.6c22.4,0,40.7-18.2,40.7-40.7v-25
		c0-22.4-18.2-40.7-40.7-40.7H427.9z M623.5,1671.8v25c0,19.3-15.7,35-35,35H427.9c-19.3,0-35-15.7-35-35v-25c0-19.3,15.7-35,35-35
		h160.6C607.8,1636.8,623.5,1652.5,623.5,1671.8z"/>
	<path d="M649.5,435.3c59.6,0,108-48.5,108-108c0-59.6-48.5-108-108-108c-59.6,0-108,48.5-108,108
		C541.5,386.8,590,435.3,649.5,435.3z M649.5,224.9c56.4,0,102.4,45.9,102.4,102.4S706,429.6,649.5,429.6
		c-56.4,0-102.4-45.9-102.4-102.4S593.1,224.9,649.5,224.9z"/>
	<path d="M649.5,1521.4c90.5,0,164.1-73.6,164.1-164.1s-73.6-164.1-164.1-164.1c-90.5,0-164.1,73.6-164.1,164.1
		S559.1,1521.4,649.5,1521.4z M649.5,1198.9c87.4,0,158.4,71.1,158.4,158.4s-71.1,158.4-158.4,158.4c-87.4,0-158.4-71.1-158.4-158.4
		S562.2,1198.9,649.5,1198.9z"/>
	<path d="M163.3,1357.3c0,59.6,48.5,108,108,108c59.6,0,108-48.5,108-108c0-59.6-48.5-108-108-108
		C211.8,1249.3,163.3,1297.7,163.3,1357.3z M373.7,1357.3c0,56.4-45.9,102.4-102.4,102.4S169,1413.7,169,1357.3
		s45.9-102.4,102.4-102.4S373.7,1300.8,373.7,1357.3z"/>
	<path d="M1027.8,1465.3c59.6,0,108-48.5,108-108c0-59.6-48.5-108-108-108s-108,48.5-108,108
		C919.7,1416.9,968.2,1465.3,1027.8,1465.3z M1027.8,1254.9c56.4,0,102.4,45.9,102.4,102.4s-45.9,102.4-102.4,102.4
		s-102.4-45.9-102.4-102.4S971.3,1254.9,1027.8,1254.9z"/>
	<path d="M757.6,3297.1c0-59.6-48.5-108-108-108c-59.6,0-108,48.5-108,108s48.5,108,108,108C709.1,3405.1,757.6,3356.6,757.6,3297.1
		z M547.2,3297.1c0-56.4,45.9-102.4,102.4-102.4c56.4,0,102.4,45.9,102.4,102.4s-45.9,102.4-102.4,102.4
		C593.1,3399.4,547.2,3353.5,547.2,3297.1z"/>
	<path d="M108.2,3706.1v29c0,25,20.3,45.4,45.4,45.4H391c25,0,45.4-20.3,45.4-45.4v-29c0-25-20.3-45.4-45.4-45.4H153.6
		C128.6,3660.8,108.2,3681.1,108.2,3706.1z M430.7,3706.1v29c0,21.9-17.8,39.7-39.7,39.7H153.6c-21.9,0-39.7-17.8-39.7-39.7v-29
		c0-21.9,17.8-39.7,39.7-39.7H391C412.9,3666.5,430.7,3684.3,430.7,3706.1z"/>
	<path d="M485.5,3706.1v29c0,25,20.3,45.4,45.4,45.4h237.5c25,0,45.4-20.3,45.4-45.4v-29c0-25-20.3-45.4-45.4-45.4H530.8
		C505.8,3660.8,485.5,3681.1,485.5,3706.1z M808,3706.1v29c0,21.9-17.8,39.7-39.7,39.7H530.8c-21.9,0-39.7-17.8-39.7-39.7v-29
		c0-21.9,17.8-39.7,39.7-39.7h237.5C790.2,3666.5,808,3684.3,808,3706.1z"/>
	<path d="M1145.5,3660.8H908.1c-25,0-45.4,20.3-45.4,45.4v29c0,25,20.3,45.4,45.4,45.4h237.5c25,0,45.4-20.3,45.4-45.4v-29
		C1190.9,3681.1,1170.5,3660.8,1145.5,3660.8z M1185.2,3735.1c0,21.9-17.8,39.7-39.7,39.7H908.1c-21.9,0-39.7-17.8-39.7-39.7v-29
		c0-21.9,17.8-39.7,39.7-39.7h237.5c21.9,0,39.7,17.8,39.7,39.7V3735.1z"/>
	<path d="M108.2,3927.1c0,25,20.3,45.4,45.4,45.4H391c25,0,45.4-20.3,45.4-45.4v-29c0-25-20.3-45.4-45.4-45.4H153.6
		c-25,0-45.4,20.3-45.4,45.4V3927.1z M113.9,3898.1c0-21.9,17.8-39.7,39.7-39.7H391c21.9,0,39.7,17.8,39.7,39.7v29
		c0,21.9-17.8,39.7-39.7,39.7H153.6c-21.9,0-39.7-17.8-39.7-39.7V3898.1z"/>
	<path d="M485.5,3927.1c0,25,20.3,45.4,45.4,45.4h237.5c25,0,45.4-20.3,45.4-45.4v-29c0-25-20.3-45.4-45.4-45.4H530.8
		c-25,0-45.4,20.3-45.4,45.4V3927.1z M491.1,3898.1c0-21.9,17.8-39.7,39.7-39.7h237.5c21.9,0,39.7,17.8,39.7,39.7v29
		c0,21.9-17.8,39.7-39.7,39.7H530.8c-21.9,0-39.7-17.8-39.7-39.7V3898.1z"/>
	<path d="M1145.5,3852.8H908.1c-25,0-45.4,20.3-45.4,45.4v29c0,25,20.3,45.4,45.4,45.4h237.5c25,0,45.4-20.3,45.4-45.4v-29
		C1190.9,3873.1,1170.5,3852.8,1145.5,3852.8z M1185.2,3927.1c0,21.9-17.8,39.7-39.7,39.7H908.1c-21.9,0-39.7-17.8-39.7-39.7v-29
		c0-21.9,17.8-39.7,39.7-39.7h237.5c21.9,0,39.7,17.8,39.7,39.7V3927.1z"/>
	<path d="M108.2,4119.1c0,25,20.3,45.4,45.4,45.4H391c25,0,45.4-20.3,45.4-45.4v-29c0-25-20.3-45.4-45.4-45.4H153.6
		c-25,0-45.4,20.3-45.4,45.4V4119.1z M113.9,4090.1c0-21.9,17.8-39.7,39.7-39.7H391c21.9,0,39.7,17.8,39.7,39.7v29
		c0,21.9-17.8,39.7-39.7,39.7H153.6c-21.9,0-39.7-17.8-39.7-39.7V4090.1z"/>
	<path d="M485.5,4119.1c0,25,20.3,45.4,45.4,45.4h237.5c25,0,45.4-20.3,45.4-45.4v-29c0-25-20.3-45.4-45.4-45.4H530.8
		c-25,0-45.4,20.3-45.4,45.4V4119.1z M491.1,4090.1c0-21.9,17.8-39.7,39.7-39.7h237.5c21.9,0,39.7,17.8,39.7,39.7v29
		c0,21.9-17.8,39.7-39.7,39.7H530.8c-21.9,0-39.7-17.8-39.7-39.7V4090.1z"/>
	<path d="M1145.5,4044.8H908.1c-25,0-45.4,20.3-45.4,45.4v29c0,25,20.3,45.4,45.4,45.4h237.5c25,0,45.4-20.3,45.4-45.4v-29
		C1190.9,4065.1,1170.5,4044.8,1145.5,4044.8z M1185.2,4119.1c0,21.9-17.8,39.7-39.7,39.7H908.1c-21.9,0-39.7-17.8-39.7-39.7v-29
		c0-21.9,17.8-39.7,39.7-39.7h237.5c21.9,0,39.7,17.8,39.7,39.7V4119.1z"/>
	<path d="M436.4,4311.1v-29c0-25-20.3-45.4-45.4-45.4H153.6c-25,0-45.4,20.3-45.4,45.4v29c0,25,20.3,45.4,45.4,45.4H391
		C416,4356.5,436.4,4336.1,436.4,4311.1z M391,4350.8H153.6c-21.9,0-39.7-17.8-39.7-39.7v-29c0-21.9,17.8-39.7,39.7-39.7H391
		c21.9,0,39.7,17.8,39.7,39.7v29C430.7,4333,412.9,4350.8,391,4350.8z"/>
	<path d="M813.6,4311.1v-29c0-25-20.3-45.4-45.4-45.4H530.8c-25,0-45.4,20.3-45.4,45.4v29c0,25,20.3,45.4,45.4,45.4h237.5
		C793.3,4356.5,813.6,4336.1,813.6,4311.1z M491.1,4311.1v-29c0-21.9,17.8-39.7,39.7-39.7h237.5c21.9,0,39.7,17.8,39.7,39.7v29
		c0,21.9-17.8,39.7-39.7,39.7H530.8C508.9,4350.8,491.1,4333,491.1,4311.1z"/>
	<path d="M1145.5,4236.8H908.1c-25,0-45.4,20.3-45.4,45.4v29c0,25,20.3,45.4,45.4,45.4h237.5c25,0,45.4-20.3,45.4-45.4v-29
		C1190.9,4257.1,1170.5,4236.8,1145.5,4236.8z M1185.2,4311.1c0,21.9-17.8,39.7-39.7,39.7H908.1c-21.9,0-39.7-17.8-39.7-39.7v-29
		c0-21.9,17.8-39.7,39.7-39.7h237.5c21.9,0,39.7,17.8,39.7,39.7V4311.1z"/>
	<path d="M176.2,2882.6c57.5,60,290.9,81.8,473.3,82.2c108.2-0.2,212.9-7.5,295.1-20.5c93.2-14.8,153.2-35.5,178.2-61.6
		c61.3-64,83.1-289.9,83.1-463.9c0-103.7-7.3-205-20.5-285.3c-10.2-62.4-29.4-144-62.7-178.6c-57.5-60-290.9-81.8-473.3-82.2
		c-108.2,0.3-212.9,7.5-295.1,20.5c-93.2,14.7-153.2,35.5-178.2,61.6c-61.3,64-83.1,289.9-83.1,463.9c0,103.7,7.3,205,20.5,285.3
		C123.8,2766.4,143,2848,176.2,2882.6z M124.8,2135.3c14.3-87.2,35-146.9,59.7-172.6c16-16.7,58.9-40.4,171.8-58.3
		c81.6-12.9,185.7-20.2,293.3-20.4c107.6,0.2,211.8,7.5,293.3,20.4c113,17.9,155.8,41.6,171.8,58.3c24.7,25.7,45.3,85.4,59.7,172.6
		c13.1,79.7,20.3,180.4,20.3,283.4c0,103.1-7.2,203.7-20.3,283.4c-14.3,87.2-35,146.9-59.7,172.6c-16,16.7-58.9,40.4-171.8,58.3
		c-81.6,12.9-185.7,20.2-293.3,20.4c-107.6-0.2-211.8-7.5-293.3-20.4c-113-17.9-155.8-41.6-171.8-58.3
		c-24.7-25.7-45.3-85.4-59.7-172.6c-13.1-79.7-20.3-180.4-20.3-283.4S111.7,2215,124.8,2135.3z"/>
	<path d="M374.4,2703.7c64.2,66.1,111.4,108.2,152.8,136.4c46.3,31.5,86.6,46.2,126.7,46.2c40.1,0,80.3-14.7,126.7-46.2
		c41.5-28.2,88.6-70.3,152.8-136.4c66.9-65.1,109.4-112.4,137.6-153.4c31.8-46.3,46.7-86.3,46.7-126.1c0-39.7-14.8-79.8-46.7-126.1
		c-28.2-41-70.7-88.4-137.6-153.4c-63.4-65.3-110.2-106.9-151.7-134.9c-46.4-31.3-86.9-45.9-127.4-45.9
		c-40.4,0-80.8,14.5-127.2,45.6c-42.2,28.3-89.3,70-152.7,135.2c-66.9,65.1-109.4,112.4-137.6,153.4
		c-31.8,46.3-46.7,86.3-46.7,126.1c0,39.7,14.8,79.8,46.7,126.1C265,2591.3,307.5,2638.6,374.4,2703.7z M246.1,2304.6
		c27.8-40.4,69.8-87.2,136.2-151.8l0.1-0.1c62.9-64.7,109.4-106,150.9-133.8c44.5-29.8,82.9-43.7,120.9-43.7
		c82.1,0,164.6,67.9,271,177.4l0.1,0.1c66.4,64.5,108.4,111.3,136.2,151.8c30.5,44.3,44.7,82.3,44.7,119.6
		c0,37.3-14.2,75.3-44.7,119.6c-27.8,40.4-69.8,87.2-136.2,151.8l-0.1,0.1c-63.7,65.6-110.3,107.2-151.1,134.9
		c-44.4,30.2-82.6,44.2-120.3,44.2s-75.9-14.1-120.3-44.2c-40.8-27.8-87.4-69.4-151.1-134.9l-0.1-0.1
		c-66.4-64.5-108.4-111.3-136.2-151.8c-30.5-44.3-44.7-82.3-44.7-119.6C201.5,2386.9,215.7,2348.9,246.1,2304.6z"/>
	<path d="M649.5,2594.5c96.9,0,175.8-78.8,175.8-175.8c0-96.9-78.8-175.8-175.8-175.8c-96.9,0-175.8,78.8-175.8,175.8
		C473.8,2515.6,552.6,2594.5,649.5,2594.5z M649.5,2257.1c89.1,0,161.6,72.5,161.6,161.6c0,89.1-72.5,161.6-161.6,161.6
		S488,2507.8,488,2418.7C488,2329.6,560.4,2257.1,649.5,2257.1z"/>
	<path d="M257.1,662.6h30.3c6.2,0,11.3-5.1,11.3-11.3v-30.3c0-6.2-5.1-11.3-11.3-11.3h-30.3c-6.2,0-11.3,5.1-11.3,11.3v30.3
		C245.8,657.5,250.9,662.6,257.1,662.6z"/>
	<path d="M638.9,662.6L638.9,662.6c5.8,0,10.6-4.8,10.6-10.6v-31.8c0-5.8-4.8-10.6-10.6-10.6h0c-5.8,0-10.6,4.8-10.6,10.6V652
		C628.3,657.8,633.1,662.6,638.9,662.6z"/>
	<path d="M670.7,662.6L670.7,662.6c5.8,0,10.6-4.8,10.6-10.6v-31.8c0-5.8-4.8-10.6-10.6-10.6h0c-5.8,0-10.6,4.8-10.6,10.6V652
		C660.1,657.8,664.9,662.6,670.7,662.6z"/>
	<circle cx="1026.8" cy="636.1" r="26.5"/>
	<path d="M634,854.6c0.9,0,1.7-0.2,2.4-0.6c13.8-6.6,27.5-13.8,41.2-20.6c2.2-0.8,3.7-2.9,3.7-5.3c0-3.3-2.6-4.8-3.4-5.2
		c-13.7-6.4-27.5-13.8-41.1-20.6c-0.2-0.1-0.1-0.1-0.3-0.2c-0.8-0.4-1.6-0.6-2.5-0.6c-3.1,0-5.7,2.5-5.7,5.7v41.7
		C628.3,852,630.9,854.6,634,854.6z"/>
	<path d="M979.5,854.6c0.9,0,1.7-0.2,2.4-0.6c13.8-6.6,27.5-13.8,41.2-20.6c2.2-0.8,3.7-2.9,3.7-5.3c0-3.3-2.6-4.8-3.4-5.2
		c-13.7-6.4-27.5-13.8-41.1-20.6c-0.2-0.1-0.1-0.1-0.3-0.2c-0.8-0.4-1.6-0.6-2.5-0.6c-3.1,0-5.7,2.5-5.7,5.7v41.7
		C973.8,852,976.3,854.6,979.5,854.6z"/>
	<path d="M1033.6,854.6c0.9,0,1.7-0.2,2.4-0.6c13.8-6.6,27.5-13.8,41.2-20.6c2.2-0.8,3.7-2.9,3.7-5.3c0-3.3-2.6-4.8-3.4-5.2
		c-13.7-6.4-27.5-13.8-41.1-20.6c-0.2-0.1-0.1-0.1-0.3-0.2c-0.8-0.4-1.6-0.6-2.5-0.6c-3.1,0-5.7,2.5-5.7,5.7v41.7
		C1027.9,852,1030.5,854.6,1033.6,854.6z"/>
	<path d="M275,833.4c13.7,6.8,27.4,14,41.2,20.6c0.7,0.4,1.6,0.6,2.4,0.6c3.1,0,5.7-2.5,5.7-5.7v-41.7c0-3.1-2.5-5.7-5.7-5.7
		c-0.9,0-1.8,0.2-2.5,0.6c-0.2,0.1-0.1,0.1-0.3,0.2c-13.6,6.8-27.4,14.2-41.1,20.6c-0.8,0.4-3.4,1.8-3.4,5.2
		C271.3,830.5,272.8,832.6,275,833.4z"/>
	<path d="M220.9,833.4c13.7,6.8,27.4,14,41.2,20.6c0.7,0.4,1.6,0.6,2.4,0.6c3.1,0,5.7-2.5,5.7-5.7v-41.7c0-3.1-2.5-5.7-5.7-5.7
		c-0.9,0-1.8,0.2-2.5,0.6c-0.2,0.1-0.1,0.1-0.3,0.2c-13.6,6.8-27.4,14.2-41.1,20.6c-0.8,0.4-3.4,1.8-3.4,5.2
		C217.1,830.5,218.7,832.6,220.9,833.4z"/>
	<path d="M215.6,1329.1v20.5h31.5v-7.9c0-2,1.6-3.6,3.6-3.6c0.6,0,1.1,0.1,1.6,0.4c0.1,0.1,0.1,0,0.2,0.1c8.7,4.3,17.5,9,26.2,13.1
		c0.5,0.2,2.1,1.2,2.1,3.3c0,1.6-1,2.9-2.4,3.4c-8.7,4.4-17.5,8.9-26.3,13.1c-0.5,0.2-1,0.4-1.6,0.4c-2,0-3.6-1.6-3.6-3.6v-7.9
		h-31.5v20.5c0,6,4.9,10.8,10.8,10.8h89.9c6,0,10.8-4.9,10.8-10.8v-51.7c0-6-4.9-10.8-10.8-10.8h-89.9
		C220.5,1318.3,215.6,1323.1,215.6,1329.1z"/>
	<path d="M297.7,1394.8h-52.8c-2.4,0-4.3,1.9-4.3,4.3v2c0,2.4,1.9,4.3,4.3,4.3h52.8c2.4,0,4.3-1.9,4.3-4.3v-2
		C302.1,1396.8,300.1,1394.8,297.7,1394.8z"/>
	<path d="M981.7,1391.7h89.9c6,0,10.8-4.9,10.8-10.8v-51.7c0-6-4.9-10.8-10.8-10.8h-89.9c-6,0-10.8,4.9-10.8,10.8v51.7
		C970.9,1386.8,975.8,1391.7,981.7,1391.7z M1031.8,1339.8l7.7,22.5l7.4-22.5h6.5l-10.8,30.4h-6.6l-10.9-30.4H1031.8z
		 M1000.1,1339.8h24.1v5.1h-9v25.3h-6.2v-25.3h-9V1339.8z"/>
	<path d="M1053.1,1394.8h-52.8c-2.4,0-4.3,1.9-4.3,4.3v2c0,2.4,1.9,4.3,4.3,4.3h52.8c2.4,0,4.3-1.9,4.3-4.3v-2
		C1057.4,1396.8,1055.4,1394.8,1053.1,1394.8z"/>
	<path d="M599.7,1428.8H628c-0.3-0.7-0.4-1.4-0.4-2.2v-54.1c0-3.4,2.9-6.1,6.5-6.1h31c3.6,0,6.5,2.8,6.5,6.1v54.1
		c0,0.8-0.2,1.5-0.4,2.2h28.3c7.8,0,14.2-6,14.2-13.4v-64.1c0-0.5,0-0.9-0.1-1.4c0.1-0.3,0.1-0.7,0.1-1c0-1.4-0.5-2.8-1.3-4
		c-15.9-22.5-33.3-44.9-49.8-67.2c-1.9-3.5-7-6.1-12.9-6.1c-8,0-11.6,4.2-12.5,5.5c-15.5,22.4-33.2,45-49.7,67.1
		c-0.2,0.3-0.2,0.2-0.4,0.5c-0.9,1.2-1.4,2.6-1.4,4.1c0,0.3,0,0.7,0.1,1c-0.1,0.5-0.1,0.9-0.1,1.4v64.1
		C585.5,1422.8,591.9,1428.8,599.7,1428.8z"/>
	<path d="M157.1,1701.7h140.5c9.6,0,17.4-7.8,17.4-17.4s-7.8-17.4-17.4-17.4H157.1c-9.6,0-17.4,7.8-17.4,17.4
		S147.5,1701.7,157.1,1701.7z"/>
	<path d="M437.9,1666.8c-9.6,0-17.4,7.8-17.4,17.4s7.8,17.4,17.4,17.4h140.5c9.6,0,17.4-7.8,17.4-17.4s-7.8-17.4-17.4-17.4H437.9z"
		/>
	<path d="M859.3,1666.8H718.8c-9.6,0-17.4,7.8-17.4,17.4s7.8,17.4,17.4,17.4h140.5c9.6,0,17.4-7.8,17.4-17.4
		S868.9,1666.8,859.3,1666.8z"/>
	<path d="M999.7,1701.7h140.5c9.6,0,17.4-7.8,17.4-17.4s-7.8-17.4-17.4-17.4H999.7c-9.6,0-17.4,7.8-17.4,17.4
		S990.1,1701.7,999.7,1701.7z"/>
	<g>
		<path d="M695.3,289.9c-8.6-10.6-19.4-17.9-32.8-20.6c-1.3-0.3-2.6,0-3.7,0.7c-1.1,0.7-1.8,1.8-2.1,3.1c-0.5,2.6,1.2,5.2,3.8,5.7
			c11.1,2.2,19.9,8.3,27.1,17.2c7.2,8.8,11.1,19.9,11.1,31.2c0,13.2-5.1,25.6-14.5,34.9s-21.7,14.5-34.9,14.5
			c-13.2,0-25.6-5.1-34.9-14.5c-9.3-9.3-14.5-21.7-14.5-34.9c0-11.4,4-22.5,11.1-31.2c7.2-8.8,15.9-14.9,27-17.2
			c2.6-0.5,4.3-3.1,3.8-5.7s-3.1-4.3-5.7-3.8c-13.3,2.7-24,10-32.7,20.5c-8.6,10.5-13.3,23.8-13.3,37.4c0,15.8,6.2,30.6,17.3,41.8
			c11.2,11.2,26,17.3,41.8,17.3c15.8,0,30.6-6.2,41.8-17.3c11.2-11.2,17.3-26,17.3-41.8C708.7,313.7,703.9,300.4,695.3,289.9z"/>
		<path d="M649.5,318.3c2.7,0,4.9-2.2,4.9-4.9v-48.7c0-2.7-2.2-4.9-4.9-4.9c-2.7,0-4.9,2.2-4.9,4.9v48.7
			C644.7,316.2,646.9,318.3,649.5,318.3z"/>
	</g>
	<path d="M923.8,2430c1,0,2.1-0.1,3.5-0.3c12.3-1.8,24.8-3.8,36.9-5.6c6.2-1,12.4-1.9,18.5-2.9c2.5-0.3,5.3-1.1,5.3-2.5
		c0-1.5-3-2.2-4.8-2.4c-12.5-1.8-25.2-3.8-37.5-5.7c-6-0.9-12-1.9-17.9-2.8l-0.4-0.1c-3.6-0.6-5.8-0.4-6.8,0.5
		c-0.6,0.6-0.7,1.3-0.7,1.9v17.2c0,0.7,0.1,1.4,0.7,1.9C921.2,2429.8,922.3,2430,923.8,2430z"/>
	<path d="M316.3,2421.2c6.2,0.9,12.3,1.9,18.5,2.9c12.1,1.9,24.6,3.8,36.9,5.6c1.4,0.2,2.6,0.3,3.5,0.3c1.5,0,2.6-0.3,3.2-0.8
		c0.6-0.5,0.7-1.3,0.7-1.9v-17.2c0-0.6-0.1-1.4-0.7-1.9c-1-0.9-3.2-1-6.8-0.5l-0.4,0.1c-5.9,0.9-11.9,1.8-17.9,2.8
		c-12.3,1.9-25,3.9-37.5,5.7c-1.8,0.3-4.8,0.9-4.8,2.4C311.1,2420.1,313.8,2420.9,316.3,2421.2z"/>
	<path d="M658.2,2689.1h-17.2c-0.7,0-1.4,0.1-1.9,0.7c-0.8,1-1,3.1-0.5,6.7c1.8,12.3,3.8,24.8,5.7,37c1,6.2,1.9,12.3,2.9,18.5
		c0.3,2.5,1.1,5.3,2.5,5.3c1.5,0,2.2-3,2.4-4.8c1.8-12.5,3.8-25.2,5.7-37.5c0.9-6,1.9-11.9,2.8-17.9l0.1-0.4
		c0.6-3.6,0.4-5.8-0.5-6.8C659.5,2689.2,658.8,2689.1,658.2,2689.1z"/>
	<path d="M640.9,2148.3h17.2c0.6,0,1.4-0.1,1.9-0.7c0.9-1,1-3.2,0.5-6.8l-0.1-0.4c-0.9-5.9-1.8-11.9-2.8-17.9
		c-1.9-12.3-3.9-25-5.7-37.5c-0.3-1.8-0.9-4.8-2.4-4.8c-1.4,0-2.2,2.7-2.5,5.2c-0.9,6.1-1.9,12.3-2.9,18.5
		c-1.9,12.1-3.8,24.6-5.7,37c-0.5,3.6-0.4,5.7,0.5,6.7C639.5,2148.3,640.3,2148.3,640.9,2148.3z"/>
	<path d="M321.4,2808.6h-48.5v-6.6c0-1.7-1.3-3-3-3c-0.5,0-0.9,0.1-1.3,0.3c-0.1,0-0.1,0-0.2,0.1c-7.2,3.6-14.5,7.5-21.7,10.9
		c-0.4,0.2-1.8,1-1.8,2.7c0,1.3,0.8,2.4,2,2.8c7.2,3.6,14.5,7.4,21.7,10.9c0.4,0.2,0.8,0.3,1.3,0.3c1.7,0,3-1.3,3-3v-6.9h48.5
		c2.6,0,5,1.1,6.7,2.8c1.7,1.7,2.8,4.1,2.8,6.7c0,2.6-1.1,5-2.8,6.7c-1.7,1.7-4.1,2.8-6.7,2.8h-49.3v8.5h49.3c5,0,9.5-2,12.7-5.3
		c3.3-3.3,5.3-7.8,5.3-12.7c0-5-2-9.5-5.3-12.7C330.9,2810.6,326.3,2808.6,321.4,2808.6z"/>
	<path d="M216.5,3317.6c1.3,1.3,3.2,2.2,5.2,2.2h75.1c2,0,3.9-0.8,5.2-2.2v0c1.3-1.3,2.2-3.2,2.2-5.2v-30.6c0-2-0.8-3.9-2.2-5.2v0
		c-1.3-1.3-3.2-2.2-5.2-2.2h-2.1l-77.8,33.3l-2.6,1.1v3.6C214.3,3314.4,215.1,3316.2,216.5,3317.6L216.5,3317.6z M262.6,3297.3
		l33.1-14.2v28.1h-33.1V3297.3z"/>
	<path d="M222.2,3128.9h37.3v37.3c0,3.1,2.5,5.7,5.7,5.7s5.7-2.5,5.7-5.7v-37.3h37.3c3.1,0,5.7-2.5,5.7-5.7s-2.5-5.7-5.7-5.7h-37.3
		v-37.3c0-3.1-2.5-5.7-5.7-5.7s-5.7,2.5-5.7,5.7v37.3h-37.3c-3.1,0-5.7,2.5-5.7,5.7S219,3128.9,222.2,3128.9z"/>
	<path d="M308.2,3465.2h-86c-3.1,0-5.7,2.5-5.7,5.7s2.5,5.7,5.7,5.7h86c3.1,0,5.7-2.5,5.7-5.7S311.3,3465.2,308.2,3465.2z"/>
	<path d="M984.9,3128.9h37.3v37.3c0,3.1,2.5,5.7,5.7,5.7s5.7-2.5,5.7-5.7v-37.3h37.3c3.1,0,5.7-2.5,5.7-5.7s-2.5-5.7-5.7-5.7h-37.3
		v-37.3c0-3.1-2.5-5.7-5.7-5.7s-5.7,2.5-5.7,5.7v37.3h-37.3c-3.1,0-5.7,2.5-5.7,5.7S981.8,3128.9,984.9,3128.9z"/>
	<path d="M984.9,3476.5h86c3.1,0,5.7-2.5,5.7-5.7s-2.5-5.7-5.7-5.7h-86c-3.1,0-5.7,2.5-5.7,5.7S981.8,3476.5,984.9,3476.5z"/>
	<path d="M706.1,3284.3c0-13.6-11.1-24.7-24.7-24.7c-13.4,0-24.4,10.8-24.7,24.2l0,25.2h24.7C695,3309,706.1,3297.9,706.1,3284.3z
		 M669.3,3272.9c0.4-0.4,0.8-0.5,1.3-0.5c0.5,0,0.9,0.2,1.3,0.5l9.5,9.5l9.5-9.5c0.7-0.7,1.9-0.7,2.6,0c0.7,0.7,0.7,1.9,0,2.6
		l-9.5,9.5l9.5,9.5c0.7,0.7,0.7,1.9,0,2.6c-0.7,0.7-1.9,0.7-2.6,0l-9.5-9.5l-9.5,9.5c-0.7,0.7-1.9,0.7-2.6,0c-0.7-0.7-0.7-1.9,0-2.6
		l9.5-9.5l-9.5-9.5C668.6,3274.8,668.6,3273.6,669.3,3272.9z"/>
	<path d="M649.6,3330.6L649.6,3330.6L649.6,3330.6L649.6,3330.6l0.1,0l0,0v0l0,0l0,0l0,0l0,0l0,0l0,0v0l0,0v0l0,0l0,0l0,0l0,0v0l0,0
		l0,0v0l0,0v0l0,0l0,0l0,0v0l0,0l0,0v0l0,0l0,0v0l0,0l0,0l0,0v0l0,0l0,0v0l0,0l0,0l0,0l0,0l0,0v0l0,0l0,0l0,0l0,0v0l0,0v0l0,0v0l0,0
		l0,0v0l0,0v0l0,0l0,0l0,0v0v-7.1v-8.2v-3.5v-8.2c0-1.7,0-3.5,0-5.2v-8.2v-3.5v-8.2v-7.1v0l0,0l0,0v0l0,0v0l0,0v0l0,0v0l0,0v0l0,0v0
		l0,0v0l0,0v0l0,0v0l0,0l0,0l0,0v0l0,0v0l0,0l0,0v0l0,0v0l0,0l0,0v0l0,0v0l0,0l0,0l0,0l0,0l0,0v0l0,0v0l0,0l0,0v0l0,0v0l0,0l0,0l0,0
		l0,0l0,0l0,0l0,0l0,0l0,0l0,0v0l0,0l0,0v0l0,0l0,0l0,0l0,0l0,0l-0.1,0l-0.1,0l-0.1,0l-0.1,0l-0.1,0l-0.1,0l-0.1,0l-0.1,0l-0.1,0
		l-0.1,0l-0.1,0l-0.1,0l-0.1,0l-0.1,0l-0.1,0l-0.1,0l-0.1,0l-0.1,0.1l-0.1,0.1l-18.2,12.3l-4.6,3.2h-0.2c-5.5,0-11,0-16.5,0l-0.1,0
		l-0.1,0l-0.1,0l-0.1,0l-0.1,0c0,0-0.1,0-0.1,0l-0.1,0l-0.1,0l-0.1,0l-0.1,0l-0.1,0l-0.1,0l-0.1,0l-0.1,0l-0.1,0l-0.1,0l-0.1,0
		l-0.1,0l-0.1,0l-0.1,0.1l-0.1,0.1l-0.1,0.1l-0.1,0.1l-0.1,0.1v0l-0.1,0.1v0l-0.1,0.1l-0.1,0.1l-0.1,0.1v0l-0.1,0.1v0l-0.1,0.1
		l-0.1,0.1l-0.1,0.1l0,0.1l0,0.1l0,0.1v0l0,0.1l0,0.1v0l0,0.1l0,0.1v0l0,0.1l0,0.1l0,0.1v0l0,0.1v0l0,0.1l0,0.1l0,0.1l0,0.1l0,0.1
		l0,0.1l0,0.1v0l0,0.1l0,0l0,0.1l0,0.1v0l0,0.1l0,0.1l0,0.1l0,0.1l0,0.1l0,0.1l0,0.1v0l0,0.1l0,0.1l0,0.1l0,0.1v11.3v0.2v0v11.3
		l0,0.1l0,0.1l0,0.1l0,0.1v0l0,0.1l0,0.1l0,0.1l0,0.1l0,0.1l0,0.1l0,0.1v0l0,0.1l0,0.1v0l0,0.1l0,0l0,0.1l0,0.1l0,0.1v0l0,0.1l0,0.1
		l0,0.1l0,0.1v0l0,0.1l0,0l0,0.1l0,0.1l0,0.1v0l0,0.1l0,0.1v0l0,0.1l0,0.1v0l0,0.1l0,0.1l0,0.1l0.1,0.1l0.1,0.1l0.1,0.1l0.1,0.1v0
		l0.1,0.1l0.1,0.1l0.1,0.1v0l0.1,0.1v0l0.1,0.1l0.1,0.1l0.1,0.1l0.1,0.1l0.1,0.1l0.1,0l0.1,0l0.1,0l0.1,0l0.1,0l0.1,0l0.1,0l0.1,0
		l0.1,0l0.1,0l0.1,0l0.1,0l0.1,0l0.1,0l0.1,0l0.1,0l0.1,0l0.1,0l0.1,0c5.5,0,11,0,16.5,0h0.2l4.6,3.2l18.2,12.3l0.1,0.1l0.1,0.1
		l0.1,0l0.1,0l0.1,0l0.1,0l0.1,0l0.1,0l0.1,0l0.1,0l0.1,0l0.1,0l0.1,0l0.1,0v0l0.1,0l0.1,0l0.1,0l0.1,0l0.1,0L649.6,3330.6
		L649.6,3330.6L649.6,3330.6z"/>
	<path d="M1068.9,3278.2c0-4.5-3.7-8.2-8.2-8.2h-17.4v16.3h25.6V3278.2z"/>
	<rect x="1016.2" y="3270" width="23.5" height="16.3"/>
	<path d="M986.9,3315.9c0,4.5,3.7,8.2,8.2,8.2h17.4v-16.3h-25.6V3315.9z"/>
	<rect x="986.9" y="3290" width="25.6" height="14.2"/>
	<rect x="1016.2" y="3307.8" width="23.5" height="16.3"/>
	<rect x="1016.2" y="3290" width="23.5" height="14.2"/>
	<path d="M1043.3,3324.1h17.4c4.5,0,8.2-3.7,8.2-8.2v-8.1h-25.6V3324.1z"/>
	<rect x="1043.3" y="3290" width="25.6" height="14.2"/>
	<path d="M1012.5,3270h-17.4c-4.5,0-8.2,3.7-8.2,8.2v8.1h25.6V3270z"/>
	<path d="M626,2444.4c7.3,0,13.1-2.4,17.5-7.1c4.4-4.7,6.5-11.1,6.5-19.3c0-7.5-2.1-13.5-6.4-18.2c-4.3-4.6-9.9-6.9-16.9-6.9
		c-7.5,0-13.5,2.4-17.9,7.2c-4.4,4.8-6.6,11.1-6.6,19.2c0,7.4,2.2,13.5,6.5,18.1C613.1,2442.1,618.8,2444.4,626,2444.4z
		 M615.2,2405.4c2.9-3.4,6.6-5.1,11.1-5.1c4.7,0,8.4,1.6,11,4.9c2.7,3.2,4,7.8,4,13.8c0,5.8-1.4,10.3-4.1,13.5
		c-2.7,3.2-6.5,4.8-11.3,4.8c-4.5,0-8.1-1.7-10.9-5.1c-2.8-3.4-4.2-7.8-4.2-13.4C610.9,2413.2,612.4,2408.8,615.2,2405.4z"/>
	<path d="M667.4,2419.1h0.1c0.1,0.3,0.5,0.9,1.2,1.7l17.3,22.8h10.8l-21-25.9l19.5-23.9h-9.9l-16.7,21.7c-0.5,0.6-0.9,1.2-1.2,1.7
		h-0.1v-23.4h-8.3v49.8h8.3V2419.1z"/>
	<path d="M1052.4,2797.6h-80.9c-3.1,0-5.7,2.5-5.7,5.7s2.5,5.7,5.7,5.7h80.9c3.1,0,5.7-2.5,5.7-5.7S1055.5,2797.6,1052.4,2797.6z"/>
	<path d="M1052.4,2818.3h-80.9c-3.1,0-5.7,2.5-5.7,5.7s2.5,5.7,5.7,5.7h80.9c3.1,0,5.7-2.5,5.7-5.7S1055.5,2818.3,1052.4,2818.3z"/>
	<path d="M1052.4,2839h-80.9c-3.1,0-5.7,2.5-5.7,5.7s2.5,5.7,5.7,5.7h80.9c3.1,0,5.7-2.5,5.7-5.7S1055.5,2839,1052.4,2839z"/>
	<path d="M971.5,1998.4h8.5c1.9,3,5.2,4.9,9,4.9c3.8,0,7.1-2,9-4.9h54.5c3.1,0,5.7-2.5,5.7-5.7s-2.5-5.7-5.7-5.7H998
		c-1.9-3.1-5.2-5.1-9.1-5.1c-3.8,0-7.2,2-9.1,5.1h-8.3c-3.1,0-5.7,2.5-5.7,5.7S968.4,1998.4,971.5,1998.4z"/>
	<path d="M971.5,2019.1h54.4c1.9,3,5.2,5,9,5s7.1-2,9-5h8.4c3.1,0,5.7-2.5,5.7-5.7s-2.5-5.7-5.7-5.7h-8.4c-1.9-3-5.2-5-9-5
		s-7.1,2-9,5h-54.4c-3.1,0-5.7,2.5-5.7,5.7S968.4,2019.1,971.5,2019.1z"/>
	<path d="M971.5,2039.8h8.4c1.9,3,5.2,5,9,5c3.8,0,7.1-2,9-5h54.4c3.1,0,5.7-2.5,5.7-5.7s-2.5-5.7-5.7-5.7h-54.4c-1.9-3-5.2-5-9-5
		c-3.8,0-7.1,2-9,5h-8.4c-3.1,0-5.7,2.5-5.7,5.7S968.4,2039.8,971.5,2039.8z"/>
	<path d="M318.3,2008.4c0-19.1-15.5-34.6-34.6-34.6c-18.8,0-34.2,15.2-34.6,34l0,35.2h34.6C302.7,2043,318.3,2027.4,318.3,2008.4z
		 M306.5,2006.7c1.4,0,2.6,1.1,2.6,2.6s-1.1,2.6-2.6,2.6h-10.2v10.2c0,1.4-1.1,2.6-2.6,2.6s-2.6-1.1-2.6-2.6v-10.2h-10.2
		c-1.4,0-2.6-1.1-2.6-2.6s1.1-2.6,2.6-2.6h10.2v-10.2c0-1.4,1.1-2.6,2.6-2.6s2.6,1.1,2.6,2.6v10.2H306.5z M274.6,1996.4
		c0,1-0.3,1.8-1,2.5c-0.7,0.7-1.5,1-2.5,1c-1,0-1.8-0.3-2.5-1c-0.7-0.7-1-1.5-1-2.5c0-1,0.3-1.8,1-2.5c0.7-0.7,1.5-1,2.5-1
		c1,0,1.8,0.3,2.5,1C274.2,1994.6,274.6,1995.4,274.6,1996.4z M260.9,2023.4l3.6-11.2c0.4-1.2,0.6-2.1,0.6-2.8
		c0-0.5-0.2-0.9-0.6-1.2c-0.4-0.3-0.9-0.5-1.6-0.5c-0.2,0-0.4,0-0.6,0l0.5-1.6l8.8-1.4h1.2l-5.6,17.7c-0.2,0.7-0.3,1.2-0.4,1.6
		c-0.1,0.2-0.1,0.6,0.1,0.7c0.2,0.1,0.5-0.1,0.7-0.3c0.8-0.7,1.6-1.8,2.6-3.4l1.5,0.9c-2.5,4.4-5.2,6.7-7.9,6.7
		c-1.1,0-1.9-0.3-2.5-0.9c-0.6-0.6-0.9-1.3-0.9-2.1C260.5,2025.1,260.6,2024.3,260.9,2023.4z"/>
	<path d="M178.7,4294.8c-1.7-0.9-4.3-1.7-7.8-2.6c-3.5-0.8-5.7-1.6-6.6-2.4c-0.7-0.6-1.1-1.3-1.1-2.2c0-0.9,0.4-1.7,1.1-2.2
		c1.2-0.9,2.8-1.3,4.9-1.3c2,0,3.5,0.4,4.5,1.2c1,0.8,1.7,2.1,2,4l7.2-0.2c-0.1-3.3-1.3-6-3.6-8c-2.3-2-5.6-3-10.1-3
		c-2.7,0-5.1,0.4-7,1.2c-1.9,0.8-3.4,2-4.5,3.6c-1,1.6-1.5,3.3-1.5,5.1c0,2.8,1.1,5.2,3.3,7.2c1.6,1.4,4.3,2.6,8.1,3.6
		c3,0.7,4.9,1.3,5.7,1.6c1.2,0.4,2.1,0.9,2.6,1.5c0.5,0.6,0.7,1.3,0.7,2.2c0,1.3-0.6,2.5-1.8,3.4c-1.2,1-2.9,1.5-5.2,1.5
		c-2.2,0-3.9-0.5-5.2-1.7c-1.3-1.1-2.1-2.8-2.6-5.2l-7,0.7c0.5,4,1.9,7,4.3,9.1c2.4,2.1,5.9,3.1,10.4,3.1c3.1,0,5.7-0.4,7.8-1.3
		c2.1-0.9,3.7-2.2,4.8-4c1.1-1.8,1.7-3.7,1.7-5.8c0-2.3-0.5-4.2-1.4-5.7C181.6,4296.9,180.3,4295.7,178.7,4294.8z"/>
	<path d="M211.3,4298.5c0,2.8-0.1,4.9-0.3,6.1c-0.2,1.2-0.8,2.2-1.9,3.1c-1,0.8-2.6,1.3-4.6,1.3c-2,0-3.6-0.4-4.7-1.3
		c-1.1-0.9-1.9-2.1-2.2-3.5c-0.2-0.9-0.3-2.9-0.3-6v-19.4h-7.2v19.1c0,4,0.2,7,0.7,9.1c0.3,1.4,1,2.7,2,4c1,1.3,2.4,2.3,4.2,3.1
		c1.8,0.8,4.3,1.2,7.7,1.2c2.8,0,5.1-0.4,6.9-1.1c1.7-0.7,3.1-1.7,4.2-2.9c1-1.2,1.8-2.7,2.2-4.5c0.4-1.8,0.6-4.8,0.6-9.1v-18.8
		h-7.2V4298.5z"/>
	<path d="M249.4,4295.5c1.5-0.7,2.8-1.7,3.7-3.1c0.9-1.4,1.3-2.9,1.3-4.6c0-1.5-0.4-2.9-1.1-4.2c-0.7-1.2-1.6-2.2-2.7-3
		c-1.1-0.7-2.3-1.2-3.7-1.5c-1.4-0.2-3.5-0.3-6.3-0.3h-14.3v35.7h12.2c4.6,0,7.5-0.1,8.7-0.2c1.9-0.2,3.5-0.8,4.8-1.7
		c1.3-0.9,2.3-2.2,3.1-3.7c0.8-1.5,1.1-3.1,1.1-4.8c0-2.1-0.6-3.9-1.7-5.4C253.2,4297.2,251.6,4296.1,249.4,4295.5z M233.4,4284.7
		h4.1c3.4,0,5.4,0,6.2,0.1c1.2,0.1,2.1,0.6,2.7,1.2c0.6,0.7,0.9,1.6,0.9,2.7c0,1.1-0.3,2.1-1.1,2.8c-0.7,0.7-1.7,1.1-2.9,1.3
		c-0.7,0.1-2.4,0.1-5.2,0.1h-4.7V4284.7z M247.7,4306.8c-0.7,0.8-1.5,1.2-2.6,1.4c-0.7,0.1-2.4,0.2-5,0.2h-6.7v-9.6h5.8
		c3.3,0,5.4,0.2,6.4,0.5c1,0.3,1.7,0.9,2.3,1.6c0.5,0.7,0.8,1.7,0.8,2.7C248.7,4305,248.4,4306,247.7,4306.8z"/>
	<polygon points="259.7,4284.8 270.3,4284.8 270.3,4314.5 277.5,4314.5 277.5,4284.8 288.1,4284.8 288.1,4278.8 259.7,4278.8 	"/>
	<rect x="292.5" y="4278.8" width="7.2" height="35.7"/>
	<polygon points="304.1,4284.8 314.7,4284.8 314.7,4314.5 321.9,4314.5 321.9,4284.8 332.4,4284.8 332.4,4278.8 304.1,4278.8 	"/>
	<polygon points="344.6,4279.1 337.3,4279.1 337.3,4314.5 362.5,4314.5 362.5,4308.5 344.6,4308.5 	"/>
	<polygon points="374.8,4298.8 392.7,4298.8 392.7,4292.7 374.8,4292.7 374.8,4284.8 394.1,4284.8 394.1,4278.8 367.6,4278.8 
		367.6,4314.5 394.8,4314.5 394.8,4308.5 374.8,4308.5 	"/>
	<polygon points="964.1,4284.8 974.6,4284.8 974.6,4314.5 981.9,4314.5 981.9,4284.8 992.4,4284.8 992.4,4278.8 964.1,4278.8 	"/>
	<polygon points="1004.3,4298.8 1022.2,4298.8 1022.2,4292.7 1004.3,4292.7 1004.3,4284.8 1023.5,4284.8 1023.5,4278.8 
		997.1,4278.8 997.1,4314.5 1024.2,4314.5 1024.2,4308.5 1004.3,4308.5 	"/>
	<polygon points="1058.9,4278.8 1050.4,4278.8 1043.4,4289.4 1036.3,4278.8 1027.9,4278.8 1039.1,4295.9 1026.8,4314.5 
		1035.4,4314.5 1043.4,4302.4 1051.3,4314.5 1060,4314.5 1047.7,4295.9 	"/>
	<polygon points="1061.1,4284.8 1071.7,4284.8 1071.7,4314.5 1079,4314.5 1079,4284.8 1089.5,4284.8 1089.5,4278.8 1061.1,4278.8 	
		"/>
	<polygon points="191.2,3704.2 191.2,3744.1 175.4,3744.1 175.4,3754.4 216.7,3754.4 216.7,3744.1 203.1,3744.1 203.1,3692 
		193.4,3692 173.7,3702.4 177.5,3711.8 	"/>
	<path d="M198.9,3943.6h11.3V3931h9.4v-10.2h-9.4v-39.1h-16l-24.1,39.4v9.9h28.8V3943.6z M181.4,3920.8l17.6-28v28H181.4z"/>
	<polygon points="178.3,4135.6 191.4,4135.6 216.3,4083.7 216.3,4073.6 173.3,4073.6 173.3,4084.8 203,4084.8 	"/>
	<path d="M563.3,3703.2c2.1-1.1,4.3-1.6,6.8-1.6c1.4,0,2.7,0.2,3.8,0.7c1.1,0.5,2,1.1,2.7,1.9c0.7,0.8,1.3,1.7,1.7,2.8
		c0.4,1.1,0.6,2.2,0.6,3.3c0,1.4-0.1,2.8-0.4,4.1c-0.3,1.3-0.9,2.8-1.8,4.3c-0.9,1.6-2.2,3.4-3.8,5.3c-1.7,2-3.9,4.4-6.6,7.1
		l-14.6,14.6v8.5h42v-10.7h-26.1l9-8.6c2.4-2.2,4.5-4.4,6.3-6.4c1.9-2,3.4-4,4.7-6.1c1.3-2,2.2-4.1,2.9-6.2c0.7-2.1,1-4.4,1-6.9
		c0-3-0.5-5.6-1.4-7.9c-1-2.3-2.3-4.2-4.1-5.7c-1.8-1.5-3.9-2.7-6.3-3.4c-2.5-0.8-5.2-1.2-8.3-1.2c-3.9,0-7.6,0.7-10.9,2.2
		c-3.4,1.5-6.4,3.5-9.1,6l6.1,7.9C559.3,3705.7,561.3,3704.3,563.3,3703.2z"/>
	<path d="M559.2,3944.2c1.1,0.1,2.2,0.2,3.4,0.2c1.1,0.1,2.1,0.1,3.1,0.1c3.9,0,7.6-0.5,10.9-1.4c3.4-0.9,6.2-2.3,8.7-4
		c2.5-1.8,4.4-3.9,5.8-6.5c1.4-2.6,2.1-5.5,2.1-8.9c0-3.7-0.7-6.7-2-9.1c-1.3-2.4-3.1-4.3-5.3-5.7c-2.2-1.4-4.7-2.4-7.6-3
		c-2.9-0.6-5.9-0.9-9.1-0.9h-4.5v-12.6h25v-10.9H554v32.9h12.1c5.2,0,8.9,0.8,11.2,2.4c2.3,1.6,3.5,4.1,3.5,7.5
		c0,3.2-1.2,5.7-3.7,7.6c-2.5,1.8-6.1,2.7-10.9,2.7c-2.4,0-4.8-0.1-7.2-0.4c-2.3-0.3-4.4-0.6-6.2-1.1v10.1c0.9,0.2,1.9,0.3,3,0.5
		C556.9,3944,558,3944.1,559.2,3944.2z"/>
	<path d="M555.9,4132.4c1.8,1.4,4.1,2.4,6.7,3.2c2.7,0.7,5.7,1.1,9.2,1.1c3.1,0,6-0.4,8.7-1.1c2.7-0.7,5-1.8,7.1-3.3
		c2-1.5,3.6-3.3,4.7-5.4c1.1-2.2,1.7-4.6,1.7-7.4c0-2.2-0.3-4.1-0.9-5.8c-0.6-1.7-1.5-3.2-2.5-4.5c-1.1-1.3-2.3-2.5-3.7-3.6
		c-1.4-1-2.9-2-4.4-2.8c1.4-0.9,2.8-1.8,4-2.9c1.3-1,2.4-2.2,3.3-3.5c0.9-1.3,1.7-2.7,2.2-4.3c0.5-1.6,0.8-3.4,0.8-5.3
		c0-2.1-0.5-4.1-1.4-5.8c-0.9-1.8-2.2-3.3-3.9-4.5c-1.7-1.3-3.9-2.2-6.4-2.9c-2.5-0.7-5.4-1-8.6-1c-3.5,0-6.6,0.4-9.2,1.3
		c-2.6,0.9-4.8,2-6.5,3.5c-1.7,1.5-3,3.2-3.9,5.2c-0.9,2-1.3,4.1-1.3,6.3c0,1.9,0.3,3.6,0.8,5.2c0.6,1.5,1.3,2.9,2.3,4.1
		c0.9,1.2,2,2.3,3.3,3.3c1.2,1,2.6,1.9,4,2.7c-1.6,0.9-3.1,1.9-4.5,3c-1.4,1.1-2.6,2.3-3.7,3.7c-1.1,1.4-1.9,2.9-2.5,4.5
		c-0.6,1.7-0.9,3.6-0.9,5.7c0,2.4,0.5,4.5,1.4,6.5C552.7,4129.4,554,4131,555.9,4132.4z M565.3,4083.2c1.6-1.1,3.9-1.7,6.9-1.7
		c3,0,5.4,0.5,7,1.6s2.4,2.6,2.4,4.7c0,1.2-0.2,2.4-0.7,3.4c-0.5,1-1,1.9-1.8,2.8c-0.7,0.9-1.6,1.6-2.6,2.3c-1,0.7-2.1,1.4-3.2,2
		c-1.5-0.7-2.8-1.4-4.1-2.1c-1.3-0.7-2.4-1.4-3.4-2.2c-1-0.8-1.7-1.7-2.2-2.6c-0.5-0.9-0.8-2-0.8-3.2
		C562.9,4085.9,563.7,4084.3,565.3,4083.2z M562.7,4116.5c0.5-1.1,1.1-2.1,1.9-3c0.8-0.9,1.7-1.8,2.8-2.5c1.1-0.8,2.3-1.5,3.5-2.1
		c1.6,0.8,3,1.5,4.4,2.3s2.6,1.6,3.7,2.5c1,0.9,1.9,1.9,2.5,2.9c0.6,1.1,0.9,2.2,0.9,3.6c0,1.3-0.3,2.4-0.8,3.4
		c-0.5,0.9-1.3,1.7-2.2,2.3c-0.9,0.6-2,1.1-3.3,1.3c-1.2,0.3-2.5,0.4-3.9,0.4c-3.1,0-5.5-0.6-7.4-1.9c-1.9-1.3-2.8-3.1-2.8-5.5
		C562,4118.8,562.2,4117.5,562.7,4116.5z"/>
	<path d="M1121.8,3726c-1.1-1.2-2.5-2.2-4.1-3c-1.6-0.8-3.4-1.3-5.4-1.6c3.1-1.2,5.5-3,7.2-5.3c1.7-2.3,2.6-5.4,2.6-9.1
		c0-2.4-0.4-4.5-1.3-6.4c-0.9-1.9-2.2-3.6-4-4.9c-1.7-1.3-3.9-2.4-6.5-3.1c-2.6-0.7-5.6-1.1-9-1.1c-1.4,0-2.8,0-4.1,0.1
		c-1.3,0.1-2.7,0.3-3.9,0.5c-1.3,0.2-2.6,0.5-3.9,0.8c-1.3,0.3-2.7,0.7-4.1,1.2v9.7c2.6-0.8,5-1.4,7.4-1.9c2.4-0.5,4.8-0.7,7.3-0.7
		c3.4,0,6,0.7,7.6,2c1.6,1.3,2.5,3.2,2.5,5.8c0,1.2-0.2,2.4-0.6,3.5c-0.4,1.1-1.1,2.1-2.1,2.9c-1,0.8-2.3,1.5-3.9,2
		c-1.6,0.5-3.7,0.7-6.2,0.7h-6.3v8.8h6.9c2.6,0,4.9,0.2,6.8,0.6c1.9,0.4,3.5,1,4.7,1.8c1.2,0.8,2.2,1.7,2.8,2.8
		c0.6,1.1,0.9,2.3,0.9,3.7c0,1.6-0.3,2.9-0.9,4.2c-0.6,1.2-1.5,2.3-2.7,3.1c-1.2,0.8-2.8,1.5-4.7,1.9c-1.9,0.4-4.2,0.7-6.8,0.7
		c-2.7,0-5.3-0.1-7.8-0.4c-2.5-0.2-4.7-0.5-6.7-0.9v10.1c0.9,0.1,1.9,0.3,3,0.4c1.1,0.1,2.2,0.2,3.4,0.3c1.2,0.1,2.3,0.1,3.5,0.2
		c1.2,0,2.3,0.1,3.4,0.1c4.8,0,9-0.5,12.6-1.4c3.6-0.9,6.5-2.2,8.9-4c2.3-1.7,4.1-3.8,5.2-6.3c1.1-2.4,1.7-5.2,1.7-8.3
		c0-1.9-0.3-3.7-0.9-5.3C1123.8,3728.6,1122.9,3727.2,1121.8,3726z"/>
	<path d="M1121.6,3910.2c-1.7-1.6-3.8-2.9-6.3-3.8c-2.5-0.9-5.5-1.3-8.8-1.3c-2.3,0-4.5,0.3-6.6,0.8c-2.1,0.5-4,1.2-5.6,2l0.1-1.1
		c0.2-2.3,0.7-4.5,1.4-6.3c0.7-1.9,1.8-3.4,3.3-4.7c1.5-1.3,3.3-2.3,5.6-3c2.3-0.7,5.2-1,8.6-1h8.2v-9.8h-7.1
		c-4.4,0-8.3,0.4-11.6,1.2c-3.3,0.8-6.2,1.9-8.6,3.4c-2.4,1.5-4.5,3.3-6.1,5.4c-1.6,2.1-2.9,4.5-3.9,7.1c-1,2.6-1.7,5.5-2.1,8.5
		c-0.4,3.1-0.6,6.3-0.6,9.7c0,9.4,1.9,16.3,5.7,20.8s9.4,6.8,16.6,6.8c3.3,0,6.4-0.5,9.1-1.5c2.8-1,5.2-2.4,7.2-4.2
		c2-1.8,3.6-4,4.7-6.5c1.1-2.5,1.7-5.4,1.7-8.5c0-3-0.4-5.6-1.3-8C1124.6,3913.9,1123.3,3911.9,1121.6,3910.2z M1113.9,3928.9
		c-0.5,1.3-1.1,2.4-2,3.3c-0.9,0.9-1.9,1.7-3.2,2.2s-2.6,0.8-4.1,0.8c-1.8,0-3.3-0.3-4.7-0.9c-1.3-0.6-2.5-1.6-3.4-3
		c-0.9-1.4-1.6-3.2-2-5.4c-0.4-2.2-0.7-4.9-0.7-8.1c0.7-0.4,1.4-0.7,2.2-1.1c0.8-0.4,1.7-0.7,2.7-1c0.9-0.3,1.9-0.5,2.9-0.7
		c1-0.2,2-0.3,3-0.3c1.7,0,3.2,0.2,4.5,0.7c1.2,0.5,2.3,1.2,3.1,2c0.8,0.9,1.4,1.9,1.8,3.1c0.4,1.2,0.6,2.6,0.6,4
		C1114.6,3926.2,1114.4,3927.6,1113.9,3928.9z"/>
	<path d="M1119,4078.8c-2-2.2-4.4-3.8-7.1-4.7c-2.7-0.9-5.7-1.4-8.9-1.4c-3.3,0-6.3,0.5-9.1,1.5c-2.8,1-5.2,2.4-7.2,4.2
		c-2,1.8-3.6,4-4.7,6.5c-1.1,2.5-1.7,5.4-1.7,8.5c0,3.4,0.5,6.3,1.5,8.8c1,2.4,2.4,4.4,4.1,5.9c1.8,1.5,3.9,2.6,6.4,3.3
		c2.5,0.7,5.2,1.1,8.2,1.1c2.2,0,4.4-0.3,6.5-0.8c2.2-0.5,4.1-1.2,5.7-2l-0.1,1.2c-0.2,2.4-0.7,4.6-1.5,6.5
		c-0.7,1.9-1.9,3.4-3.4,4.7c-1.5,1.3-3.5,2.2-6,2.8c-2.5,0.6-5.6,1-9.3,1h-8.4v9.9h7.2c3.1,0,6.1-0.2,9-0.5c2.9-0.4,5.6-1,8.2-1.9
		c2.6-1,4.9-2.2,7-3.9c2.1-1.6,3.9-3.7,5.4-6.3c1.5-2.6,2.7-5.6,3.5-9.3c0.8-3.6,1.2-7.9,1.2-12.7c0-5.4-0.6-9.9-1.7-13.6
		C1122.6,4083.9,1121.1,4081,1119,4078.8z M1110.8,4101c-0.9,0.4-1.8,0.7-2.8,1c-1,0.3-1.9,0.5-2.9,0.7c-1,0.2-1.9,0.2-2.7,0.2
		c-3.1,0-5.6-0.8-7.3-2.4c-1.8-1.6-2.7-4.1-2.7-7.5c0-1.6,0.2-3,0.7-4.3c0.5-1.3,1.1-2.4,2-3.3c0.9-0.9,1.9-1.6,3.2-2.1
		c1.2-0.5,2.6-0.8,4.1-0.8c2,0,3.7,0.4,5,1.1c1.4,0.8,2.5,1.9,3.3,3.4c0.8,1.5,1.4,3.3,1.8,5.4c0.4,2.2,0.6,4.6,0.6,7.4
		C1112.4,4100.3,1111.7,4100.6,1110.8,4101z"/>
	<path d="M589.7,4273.1c-2.1-2.6-4.5-4.5-7.4-5.6c-2.9-1.2-6-1.8-9.4-1.8c-3.9,0-7.4,0.7-10.5,2.2c-3.1,1.5-5.7,3.6-7.8,6.3
		c-2.1,2.8-3.7,6.2-4.9,10.2c-1.1,4-1.7,8.6-1.7,13.7c0,5.6,0.6,10.4,1.7,14.4c1.2,4,2.8,7.3,4.9,9.9c2.1,2.6,4.6,4.5,7.4,5.7
		c2.9,1.2,6,1.8,9.4,1.8c3.9,0,7.5-0.7,10.5-2.2c3.1-1.5,5.7-3.6,7.8-6.3c2.1-2.8,3.8-6.2,4.9-10.2c1.1-4,1.7-8.6,1.7-13.7
		c0-5.6-0.6-10.4-1.7-14.5C593.4,4279,591.8,4275.7,589.7,4273.1z M583.8,4307.8c-0.6,2.8-1.5,5.2-2.6,7c-1.1,1.8-2.5,3.2-4,4.1
		c-1.5,0.9-3.2,1.4-5,1.4c-2.4,0-4.6-0.7-6.4-2.2c-1.8-1.5-3.3-3.8-4.3-6.8c-0.9-3.2-1.8-8.3-1.8-11.9c0-0.6,0-1.1,0-1.8
		c0-3.9,0.3-7.2,1-10c0.6-2.8,1.5-5.2,2.7-7c1.1-1.9,2.4-3.3,4-4.1c1.5-0.9,3.2-1.4,4.9-1.4c2.5,0,4.6,0.8,6.4,2.3
		c1.6,1.3,2.9,3.3,4,5.9c0.8,1.9,1.9,7.6,2,12.6c0,0.7,0.1,1.3,0.1,2C584.7,4301.7,584.4,4305,583.8,4307.8z"/>
	<path d="M326.8,994.8c0-5.8-4.8-10.6-10.6-10.6h-14.4v20.7h25V994.8z"/>
	<rect x="274.4" y="1011.3" width="52.4" height="17.6"/>
	<rect x="248.3" y="1011.3" width="21.8" height="17.6"/>
	<path d="M239.9,984.2h-11.5c-5.8,0-10.6,4.8-10.6,10.6v10.2h22.1V984.2z"/>
	<rect x="217.8" y="1011.3" width="22.1" height="17.6"/>
	<rect x="248.3" y="984.2" width="49.2" height="20.7"/>
	<path d="M228.4,1055.9h11.5v-20.7h-22.1v10.2C217.8,1051.2,222.6,1055.9,228.4,1055.9z"/>
	<path d="M326.8,1045.3v-10.2h-78.4v20.7h67.9C322,1055.9,326.8,1051.2,326.8,1045.3z"/>
	<path d="M982.9,1055.9h87.8c5.8,0,10.6-4.8,10.6-10.6v-50.5c0-5.8-4.8-10.6-10.6-10.6h-87.8c-5.8,0-10.6,4.8-10.6,10.6v50.5
		C972.3,1051.1,977.1,1055.9,982.9,1055.9z M1061.7,1039.5c-1,0.9-2.4,1.4-4,1.4H996c-1.7,0-3.1-0.5-4-1.4c-1-0.9-1.6-2.2-1.6-3.9
		h2.1c0,1,0.3,1.8,0.9,2.3c0.6,0.5,1.5,0.8,2.6,0.8h61.7c1.1,0,2-0.3,2.6-0.8c0.6-0.5,0.9-1.3,0.9-2.3h2.1
		C1063.2,1037.2,1062.7,1038.5,1061.7,1039.5z M1066.3,1020c0,1-0.6,1.8-1.5,2.1c-5.4,2.7-10.9,5.6-16.3,8.2c-0.3,0.1-0.6,0.2-1,0.2
		c-1.2,0-2.3-1-2.3-2.3v-16.5c0-1.2,1-2.3,2.3-2.3c0.4,0,0.7,0.1,1,0.2c0.1,0,0,0,0.1,0.1c5.4,2.7,10.9,5.6,16.3,8.2
		C1065.3,1018.1,1066.3,1018.7,1066.3,1020z M991.9,1000.6c1-0.9,2.4-1.4,4-1.4h61.7c1.7,0,3.1,0.5,4,1.4c1,0.9,1.6,2.2,1.6,3.9
		h-2.1c0-1-0.3-1.8-0.9-2.3c-0.6-0.5-1.5-0.8-2.6-0.8H996c-1.1,0-2,0.3-2.6,0.8c-0.6,0.5-0.9,1.3-0.9,2.3h-2.1
		C990.4,1002.9,990.9,1001.6,991.9,1000.6z M988.6,1018c5.4-2.5,10.9-5.5,16.3-8.2c0.1,0,0.1,0,0.1-0.1c0.3-0.2,0.6-0.2,1-0.2
		c1.2,0,2.3,1,2.3,2.3v16.5c0,1.2-1,2.3-2.3,2.3c-0.3,0-0.7-0.1-1-0.2c-5.5-2.6-10.9-5.5-16.3-8.2c-0.9-0.3-1.5-1.1-1.5-2.1
		C987.3,1018.7,988.3,1018.1,988.6,1018z"/>
	<path d="M348.6,3752.6c3.9,1.8,8.5,2.7,13.9,2.7c5.5,0,10.2-1.1,14.1-3.2c3.4-1.9,5.9-4.5,7.5-7.8h-5.2c-1.7,2.2-4,3.8-6.8,4.9
		c-2.8,1.1-6.1,1.6-10,1.6c-4,0-7.6-0.6-10.7-1.9c-3.1-1.3-5.6-3.4-7.3-6.2c-1.7-2.8-2.6-5.9-2.6-9.4c0-3.5,0.8-6.9,2.3-10.2
		c1.5-3.3,3.9-5.8,6.9-7.6c3.1-1.8,6.8-2.7,11.2-2.7c5.2,0,9.2,1.3,12.1,4c2.9,2.7,4.3,6,4.3,10c0,2.2-0.5,4.4-1.5,6.5
		c-1,2.1-2.4,3.7-4,5c-1.2,0.9-2.2,1.4-3,1.4c-0.3,0-0.5-0.1-0.7-0.3c-0.2-0.2-0.3-0.5-0.3-0.9c0-0.3,0.1-1,0.3-2.1l3.7-17.5h-6.4
		l-0.6,2.7c-1.4-2.2-3.5-3.3-6.4-3.3c-4.1,0-7.4,1.9-10,5.7c-2.1,3.2-3.2,6.6-3.2,10.4c0,3.1,0.9,5.6,2.7,7.4c1.8,1.9,4,2.8,6.7,2.8
		c2.5,0,4.7-0.9,6.6-2.8c0.2,0.9,0.7,1.6,1.4,2.1c0.7,0.5,1.7,0.7,3,0.7c5,0,9.1-2.1,12.3-6.3c2.6-3.4,3.8-7.1,3.8-11.2
		c0-3.5-0.8-6.7-2.5-9.6c-1.7-2.9-4.1-5.2-7.3-6.8c-3.2-1.6-6.8-2.4-10.9-2.4c-4.8,0-9.1,1-12.9,3c-3.8,2-6.7,4.9-8.9,8.9
		c-2.2,4-3.2,8.2-3.2,12.8c0,4.2,0.9,8,2.9,11.6C341.8,3748.1,344.7,3750.8,348.6,3752.6z M363.5,3733.7c-0.6,1.9-1.4,3.3-2.2,4.3
		c-0.6,0.7-1.2,1.2-1.8,1.5c-0.8,0.5-1.7,0.7-2.6,0.7c-1.2,0-2.3-0.5-3.1-1.5c-0.8-1-1.2-2.5-1.2-4.6c0-1.5,0.3-3.3,0.9-5.3
		c0.6-2,1.5-3.5,2.7-4.6c1.2-1.1,2.5-1.6,3.9-1.6c1.3,0,2.4,0.5,3.2,1.5c0.8,1,1.3,2.4,1.3,4.2
		C364.5,3730.1,364.2,3731.9,363.5,3733.7z"/>
	<rect x="281.9" y="3744" width="10.3" height="10.3"/>
	<path d="M305.3,3941c3,1.7,6.4,2.5,10.4,2.5c3.1,0,6.2-0.6,9.2-1.8c3-1.2,5.4-2.6,7-4.1v-15.1h-16.5v6.4h8.7v4.8
		c-1.2,0.9-2.5,1.7-4.2,2.3c-1.6,0.6-3.2,0.9-4.8,0.9c-3.2,0-5.9-1.1-7.9-3.4c-2-2.3-3-5.6-3-10.1c0-4.2,1-7.3,3-9.5s4.6-3.2,8-3.2
		c2.2,0,4,0.5,5.5,1.6c1.5,1.1,2.5,2.6,3,4.4l7.6-1.4c-0.8-3.5-2.5-6.2-5.1-8.2c-2.7-2-6.3-3-11-3c-3.6,0-6.6,0.6-9.1,1.9
		c-3.2,1.6-5.6,4-7.3,7.1c-1.7,3.1-2.5,6.6-2.5,10.6c0,3.6,0.7,7,2.2,10.1C300.2,3936.9,302.4,3939.3,305.3,3941z"/>
	<polygon points="346.7,3926.2 361.6,3926.2 361.6,3942.8 369.3,3942.8 369.3,3904.8 361.6,3904.8 361.6,3919.8 346.7,3919.8 
		346.7,3904.8 339,3904.8 339,3942.8 346.7,3942.8 	"/>
	<rect x="377" y="3904.8" width="7.7" height="37.9"/>
	<polygon points="679.3,4134.8 687,4134.8 687,4103.2 698.2,4103.2 698.2,4096.8 668.1,4096.8 668.1,4103.2 679.3,4103.2 	"/>
	<path d="M706,4130.9c1.1,1.3,2.6,2.4,4.4,3.3c1.9,0.8,4.6,1.3,8.2,1.3c3,0,5.4-0.4,7.3-1.2c1.9-0.8,3.3-1.8,4.4-3.1
		c1.1-1.3,1.9-2.9,2.3-4.8c0.4-1.9,0.6-5.1,0.6-9.7v-20h-7.7v21c0,3-0.1,5.2-0.3,6.4c-0.2,1.3-0.9,2.4-2,3.3
		c-1.1,0.9-2.7,1.3-4.9,1.3c-2.1,0-3.8-0.5-5-1.4c-1.2-0.9-2-2.2-2.3-3.7c-0.2-1-0.3-3.1-0.3-6.3v-20.6h-7.7v20.3
		c0,4.2,0.2,7.5,0.8,9.6C704.2,4128.2,705,4129.6,706,4130.9z"/>
	<polygon points="759.4,4134.8 772.9,4096.8 764.7,4096.8 755.5,4124.9 745.9,4096.8 737.6,4096.8 751.1,4134.8 	"/>
	<path d="M678.4,3943.5c3.2,0,5.8-0.7,7.7-2c2-1.3,3.3-3.1,4-5.3c0.6-1.7,0.8-4.1,0.8-7.3v-24h-7.7v24.5c0,3.1-0.4,5.1-1.1,6.1
		c-0.7,1-1.9,1.5-3.6,1.5c-1.7,0-2.9-0.7-3.7-2c-0.5-0.9-0.9-2.4-0.9-4.6l-7.3,0.8c0,4,1,7.1,3.1,9.2
		C671.7,3942.4,674.6,3943.5,678.4,3943.5z"/>
	<polygon points="706.9,3931.3 713.1,3925 723.5,3942.8 733.4,3942.8 718.4,3919.6 732.7,3904.8 722.4,3904.8 706.9,3921.6 
		706.9,3904.8 699.2,3904.8 699.2,3942.8 706.9,3942.8 	"/>
	<polygon points="764.3,3936.4 745.3,3936.4 745.3,3905.2 737.6,3905.2 737.6,3942.8 764.3,3942.8 	"/>
	<path d="M679.9,3746h15.2l3.3,8.6h8.3l-15.2-37.9h-8.1l-14.7,37.9h8.1L679.9,3746z M687.4,3725.5l5.3,14h-10.4L687.4,3725.5z"/>
	<path d="M732.9,3754.3c2-0.2,3.8-0.8,5.1-1.8c1.4-1,2.5-2.3,3.3-3.9c0.8-1.6,1.2-3.3,1.2-5c0-2.2-0.6-4.1-1.9-5.7
		c-1.2-1.6-3-2.8-5.3-3.5c1.6-0.7,2.9-1.8,3.9-3.3c1-1.5,1.4-3.1,1.4-4.9c0-1.6-0.4-3.1-1.2-4.4c-0.8-1.3-1.7-2.4-2.9-3.2
		c-1.2-0.8-2.5-1.3-4-1.6c-1.5-0.2-3.7-0.4-6.7-0.4h-15.2v37.9h12.9C728.6,3754.6,731.7,3754.5,732.9,3754.3z M718.5,3723h4.4
		c3.6,0,5.8,0,6.5,0.1c1.3,0.2,2.2,0.6,2.9,1.3c0.6,0.7,1,1.7,1,2.9c0,1.2-0.4,2.2-1.1,3c-0.8,0.8-1.8,1.2-3.1,1.4
		c-0.7,0.1-2.6,0.1-5.6,0.1h-5V3723z M718.5,3738h6.2c3.5,0,5.8,0.2,6.8,0.5c1,0.4,1.8,0.9,2.4,1.7c0.6,0.8,0.8,1.8,0.8,2.9
		c0,1.4-0.4,2.4-1.1,3.2c-0.7,0.8-1.6,1.3-2.8,1.5c-0.7,0.2-2.5,0.2-5.3,0.2h-7.1V3738z"/>
	<path d="M765,3755.2c4.1,0,7.4-1,10.1-3c2.6-2,4.5-5.1,5.7-9.3l-7.4-2.3c-0.6,2.8-1.7,4.8-3.2,6.1c-1.5,1.3-3.2,1.9-5.3,1.9
		c-2.8,0-5-1-6.7-3.1c-1.7-2-2.6-5.5-2.6-10.2c0-4.5,0.9-7.8,2.6-9.8c1.7-2,4-3,6.9-3c2,0,3.8,0.6,5.2,1.7c1.4,1.1,2.4,2.7,2.8,4.7
		l7.6-1.8c-0.9-3-2.2-5.4-3.9-7c-2.9-2.7-6.7-4.1-11.3-4.1c-5.3,0-9.6,1.7-12.9,5.2c-3.3,3.5-4.9,8.4-4.9,14.7
		c0,6,1.6,10.7,4.9,14.1C755.8,3753.5,759.9,3755.2,765,3755.2z"/>
	<path d="M949.1,3720.9c-1.6-1.7-3.5-2.8-5.7-3.5c-1.7-0.5-4.1-0.7-7.2-0.7h-14v37.9h14.4c2.8,0,5.1-0.3,6.8-0.8
		c2.3-0.7,4-1.7,5.4-3c1.8-1.7,3.1-3.9,4.1-6.7c0.8-2.3,1.2-4.9,1.2-8.1c0-3.6-0.4-6.5-1.2-9
		C951.9,3724.6,950.7,3722.5,949.1,3720.9z M945.3,3742.6c-0.5,1.7-1.2,2.9-2,3.7c-0.8,0.7-1.8,1.3-3.1,1.6
		c-0.9,0.2-2.5,0.4-4.6,0.4h-5.7v-25.1h3.4c3.1,0,5.2,0.1,6.3,0.4c1.4,0.3,2.6,0.9,3.5,1.8c0.9,0.9,1.7,2.1,2.2,3.7
		c0.5,1.6,0.8,3.8,0.8,6.7S945.8,3740.9,945.3,3742.6z"/>
	<polygon points="968.1,3737.9 987.1,3737.9 987.1,3731.5 968.1,3731.5 968.1,3723.1 988.5,3723.1 988.5,3716.6 960.5,3716.6 
		960.5,3754.6 989.3,3754.6 989.3,3748.2 968.1,3748.2 	"/>
	<polygon points="995.8,3754.6 1003.5,3754.6 1003.5,3738.5 1019.4,3738.5 1019.4,3732.1 1003.5,3732.1 1003.5,3723.1 
		1021.9,3723.1 1021.9,3716.6 995.8,3716.6 	"/>
	<polygon points="940.4,3932 933.6,3906.1 922.1,3906.1 922.1,3944 929.2,3944 929.2,3914.2 936.7,3944 944,3944 951.5,3914.2 
		951.5,3944 958.6,3944 958.6,3906.1 947.1,3906.1 	"/>
	<polygon points="989.4,3931.5 973.8,3906.1 966.3,3906.1 966.3,3944 973.4,3944 973.4,3919.1 988.8,3944 996.5,3944 996.5,3906.1 
		989.4,3906.1 	"/>
	<path d="M1021.4,3905.4c-3.1,0-5.8,0.5-8.2,1.5c-1.8,0.8-3.4,1.9-4.9,3.4c-1.5,1.5-2.7,3.3-3.5,5.2c-1.2,2.6-1.7,5.9-1.7,9.8
		c0,6.1,1.7,10.8,5,14.3c3.3,3.5,7.8,5.2,13.5,5.2c5.6,0,10-1.7,13.4-5.2c3.3-3.5,5-8.3,5-14.4c0-6.2-1.7-11-5-14.5
		C1031.5,3907.1,1027,3905.4,1021.4,3905.4z M1029,3934.9c-2,2.2-4.5,3.3-7.5,3.3c-3.1,0-5.6-1.1-7.6-3.3c-2-2.2-3-5.5-3-9.8
		c0-4.4,1-7.6,2.9-9.8c1.9-2.2,4.5-3.3,7.6-3.3c3.2,0,5.7,1.1,7.6,3.2c1.9,2.1,2.9,5.4,2.9,9.7C1032,3929.3,1031,3932.6,1029,3934.9
		z"/>
	<polygon points="952.9,4123.3 946.6,4098.1 937.9,4098.1 931.3,4122.9 926,4098.1 918.5,4098.1 927,4134.2 935,4134.2 
		942.1,4107.2 949.2,4134.2 957,4134.2 965.7,4098.1 958.4,4098.1 	"/>
	<polygon points="998.3,4098.1 989.8,4098.1 982.7,4108.9 975.6,4098.1 967.1,4098.1 978.3,4115.4 965.9,4134.2 974.7,4134.2 
		982.7,4122 990.7,4134.2 999.4,4134.2 987,4115.4 	"/>
	<polygon points="1016.5,4112.4 1007.9,4098.1 999.4,4098.1 1012.6,4119 1012.6,4134.2 1019.9,4134.2 1019.9,4119.1 1033.2,4098.1 
		1024.8,4098.1 	"/>
	<polygon points="1062.1,4103.8 1062.1,4098.1 1035.7,4098.1 1035.7,4104.2 1052.6,4104.2 1033.6,4127.6 1033.6,4134.2 
		1062.9,4134.2 1062.9,4128.1 1042.4,4128.1 	"/>
	<path d="M755.2,4315.7c0,0.5-0.1,0.9-0.2,1.3c-0.1,0.3-0.3,0.6-0.5,0.8c-0.2,0.2-0.6,0.4-1,0.5c-0.4,0.1-1,0.2-1.6,0.2h-62.9
		c-0.6,0-1.1-0.1-1.6-0.2c-0.4-0.1-0.7-0.3-1-0.5c-0.2-0.2-0.4-0.5-0.5-0.8c-0.1-0.4-0.2-0.8-0.2-1.3v-1.4h-5.7v1.4
		c0,1.3,0.2,2.4,0.6,3.4c0.4,1.1,1.1,2,1.9,2.8c0.8,0.7,1.8,1.3,2.9,1.7c1.1,0.4,2.2,0.6,3.5,0.6h62.9c1.3,0,2.4-0.2,3.5-0.6
		c1.1-0.4,2.1-1,2.9-1.7c0.8-0.8,1.5-1.7,1.9-2.8c0.4-1,0.6-2.2,0.6-3.4v-1.4h-5.7V4315.7z"/>
	<polygon points="249.6,4134.8 257.2,4106.4 264.6,4134.8 272.9,4134.8 282,4096.8 274.3,4096.8 268.5,4123.3 261.9,4096.8 
		252.7,4096.8 245.8,4122.9 240.2,4096.8 232.3,4096.8 241.2,4134.8 	"/>
	<polygon points="291.4,4134.8 299.8,4121.9 308.2,4134.8 317.4,4134.8 304.3,4115 316.2,4096.8 307.3,4096.8 299.8,4108.1 
		292.3,4096.8 283.4,4096.8 295.3,4115 282.2,4134.8 	"/>
	<polygon points="331.3,4134.8 339,4134.8 339,4118.9 352.9,4096.8 344.1,4096.8 335.4,4111.9 326.4,4096.8 317.4,4096.8 
		331.3,4118.8 	"/>
	<polygon points="384.2,4128.4 362.7,4128.4 383.4,4102.8 383.4,4096.8 355.7,4096.8 355.7,4103.2 373.4,4103.2 353.4,4127.9 
		353.4,4134.8 384.2,4134.8 	"/>
	<path d="M796.6,4524.5c-10.9,0-24,0.8-33.5,1.9v89.9l27.5,0v-21.5l9.8,0c25.5,0,41.6-13.2,41.6-36.1
		C842.1,4533.6,824.9,4524.5,796.6,4524.5z M795.1,4578.6h-4.5v-37.2c1.5-0.1,3.1-0.1,4.5-0.1c13.5,0.1,19.9,6.5,19.9,17.7
		C815,4570.7,809.4,4578.6,795.1,4578.6z"/>
	<path d="M877.7,4549.4c0-4.9,4.9-7.2,12.8-7.2c8.7,0,18,1.9,24.4,4.5l-2.3-19.5c-7.2-1.5-13.5-2.7-25.2-2.7
		c-22.2,0-37.2,8.7-37.2,27.1c0,31.5,42.8,25.2,42.8,39.8c0,5.6-4.1,8.7-14.3,8.7c-8.9,0-22.9-3.1-31.2-7.2l3.1,20.7
		c8.3,3.1,19.5,4.5,28.6,4.5c22.9,0,41.8-7.5,41.8-30.1C921,4557.9,877.7,4563.6,877.7,4549.4z"/>
	<rect x="604" y="4526.4" width="27.5" height="89.9"/>
	<rect x="715.1" y="4526.4" width="27.5" height="89.9"/>
	<polygon points="556.2,4562.2 527.6,4562.2 527.6,4526.4 500.2,4526.4 500.2,4616.3 527.6,4616.3 527.6,4580.9 556.2,4580.9 
		556.2,4616.3 583.7,4616.3 583.7,4526.4 556.2,4526.4 	"/>
	<path d="M444,4524.5c-10.9,0-24,0.8-33.5,1.9v89.9l27.5,0v-21.5l9.7,0c25.5,0,41.8-13.2,41.8-36.1
		C489.4,4533.6,472.2,4524.5,444,4524.5z M442.4,4578.6H438v-37.2c1.7-0.1,3.1-0.1,4.5-0.1c13.5,0.1,19.9,6.5,19.9,17.7
		C462.4,4570.7,456.7,4578.6,442.4,4578.6z"/>
	<polygon points="679,4598.2 679,4526.4 651.6,4526.4 651.6,4616.3 701.3,4616.3 705.3,4598.3 679,4598.3 	"/>
	<path d="M624.1,1028.9c1.7,3.6,1.7,2.5-2,8.6c-3.1,5.1-1.5,5.3,1.6,8.4c4.6,4.6,3.4,4.6,12.5-0.9c2-1.2,2.4-0.4,4.5,0.5
		c1,2.1,1.4,5.1,2.1,7.7c1,3.6,2.8,3.5,6.6,3.5c3.8,0,5.8,0.3,6.8-3.3c0.8-2.5,1.1-5.8,2.2-8c2-1,2.6-1.7,4.5-0.6
		c9.2,5.5,8,5.4,12.5,0.9c4.5-4.5,4.7-3.3-0.9-12.5c-1.2-2-0.4-2.4,0.5-4.5c2.1-1,5.1-1.4,7.7-2.1c3.6-1,3.5-2.8,3.5-6.6
		c0-3.8,0.3-5.8-3.3-6.8c-2.5-0.8-5.8-1.1-8-2.2c-2-4.1-0.9-3.9,1.3-7.5c3.9-6.6,2.8-5.5-2-10.5c-3.5-3.7-3.9-2.6-11.5,1.9
		c-1.5,0.9-2,0.8-3.8-0.2c-1.4-0.7-0.6,0.6-1.8-4.1c-1.9-7.6-1.4-7.7-10-7.4c-4.4,0.1-4.3,3.1-5.2,6.6c-0.2,0.9-0.7,3.9-1.4,4.6
		c-4.6,4.8-10.5-7.6-15.3-2.1c-5.6,6.5-7.3,3.5-0.8,14.3c0.9,1.5,0.8,2-0.2,3.8c-0.7,1.4,0.6,0.6-4.1,1.8c-7.6,1.9-7.7,1.4-7.4,10
		C613,1028.5,619.8,1026.7,624.1,1028.9z M640.9,1011.3c2.2-2.2,5.3-3.6,8.6-3.6c3.4,0,6.4,1.4,8.6,3.6c2.2,2.2,3.6,5.3,3.6,8.6
		c0,3.4-1.4,6.4-3.6,8.6c-2.2,2.2-5.3,3.6-8.6,3.6c-3.4,0-6.4-1.4-8.6-3.6c-2.2-2.2-3.6-5.3-3.6-8.6
		C637.4,1016.5,638.7,1013.5,640.9,1011.3z"/>
	<path d="M649.5,1029.3c2.6,0,4.9-1,6.6-2.7c1.7-1.7,2.7-4,2.7-6.6c0-2.6-1-4.9-2.7-6.6c-1.7-1.7-4-2.7-6.6-2.7
		c-2.6,0-4.9,1-6.6,2.7c-1.7,1.7-2.7,4-2.7,6.6s1,4.9,2.7,6.6C644.6,1028.2,647,1029.3,649.5,1029.3z"/>
</g>
</svg>
